#VRML V2.0 utf8
# 3D model generated by easyeda2kicad.py (https://github.com/uPesy/easyeda2kicad.py)

Shape{
    appearance Appearance {
        material  Material 	{
            diffuseColor 0.7529411764705882 0.7529411764705882 0.7529411764705882
            specularColor 0.3764705882352941 0.3764705882352941 0.3764705882352941
            ambientIntensity 0.7529
            transparency 0.0
            shininess 0.5
        }
    }
    geometry IndexedFaceSet {
        ccw TRUE
        solid FALSE
        coord DEF co Coordinate {
            point [
                0.2 0.8713 1.1358, -0.2 0.8713 0.6358, -0.2 0.8713 1.1358, -1.395 0.8713 0.0558, -1.395 0.8713 0.1158, -0.4 0.8713 1.1358, -0.4 0.8713 0.6358, 0.2 0.8713 0.6358, 0.4 0.8713 0.6358, 1.195 0.8713 0.1158, -1.195 0.8713 0.1158, -1.195 0.8713 0.0558, 1.495 0.8713 1.5558, 1.495 0.8713 0.1158, 0.4 0.8713 1.1358, 1.395 0.8713 0.1158, -1.495 0.8713 0.1158, -1.495 0.8713 1.5558, 1.195 0.8713 0.0558, 1.395 0.8713 0.0558, 1.395 0.7113 0.1158, 1.495 0.7113 0.1158, 1.495 0.7113 1.4958, -0.2 0.7113 0.6358, -0.4 0.7113 0.6358, -1.195 0.7113 0.1158, 1.195 0.7113 0.1158, -1.495 0.7113 1.4958, -0.4 0.7113 1.1358, -0.2 0.7113 1.1358, -1.395 0.7113 0.1158, -1.495 0.7113 0.1158, 0.2 0.7113 1.1358, 0.4 0.7113 1.1358, 0.4 0.7113 0.6358, 0.2 0.7113 0.6358
            ]
        }
        coordIndex [
            0,1,2,-1,3,4,5,-1,5,6,3,-1,3,6,1,-1,3,1,7,-1,7,1,0,-1,8,9,7,-1,7,9,10,-1,7,10,3,-1,3,10,11,-1,12,13,14,-1,14,13,15,-1,4,16,5,-1,5,16,17,-1,5,17,2,-1,2,17,12,-1,2,12,0,-1,0,12,14,-1,8,14,9,-1,9,14,15,-1,9,15,18,-1,18,15,19,-1,20,21,22,-1,23,24,25,-1,20,22,26,-1,27,28,29,-1,24,28,25,-1,25,28,27,-1,25,27,30,-1,30,27,31,-1,32,33,22,-1,22,33,34,-1,22,34,26,-1,26,34,35,-1,22,27,32,-1,32,27,29,-1,32,29,35,-1,35,29,23,-1,35,23,26,-1,26,23,25,-1,31,16,30,-1,30,16,4,-1,13,21,15,-1,15,21,20,-1,
        ]
    }
}
Shape{
    appearance Appearance {
        material  Material 	{
            diffuseColor 1.0 0.6784313725490196 0.36470588235294116
            specularColor 0.8784313725490196 0.596078431372549 0.3215686274509804
            ambientIntensity 0.7388
            transparency 0.0
            shininess 0.5
        }
    }
    geometry IndexedFaceSet {
        ccw TRUE
        solid FALSE
        coord DEF co Coordinate {
            point [
                0.5027 -0.1974 0.1958, 0.5027 -0.4645 0.1958, 0.3893 -0.4645 0.1958, -0.6808 -0.1956 0.1958, -0.6808 -0.1187 0.1958, -0.39 -0.1187 0.1958, -0.1 -0.0437 0.1958, -0.0895 -0.0437 0.1958, -0.0895 -0.1187 0.1958, 0.091 -0.4993 0.1958, 0.091 -0.1956 0.1958, 0.1405 -0.449 0.1958, 0.1405 -0.4819 0.1958, 0.1725 -0.495 0.1958, 0.2028 -0.4993 0.1958, 0.1752 -0.1963 0.1958, 0.1405 -0.2057 0.1958, 0.1405 -0.2459 0.1958, 0.1743 -0.2314 0.1958, 0.1459 -0.4519 0.1958, 0.2108 -0.2267 0.1958, 0.2403 -0.23 0.1958, 0.2628 -0.2381 0.1958, 0.2835 -0.252 0.1958, 0.3017 -0.272 0.1958, 0.3235 -0.3506 0.1958, 0.3204 -0.3831 0.1958, 0.3123 -0.4089 0.1958, 0.2455 -0.465 0.1958, 0.2175 -0.4682 0.1958, 0.2674 -0.457 0.1958, 0.2858 -0.4446 0.1958, 0.2999 -0.4297 0.1958, 0.1777 -0.4638 0.1958, 0.314 -0.2952 0.1958, 0.322 -0.3273 0.1958, 0.1846 -0.1956 0.1958, 0.091 -0.1187 0.1958, 0.2111 -0.1938 0.1958, 0.2891 -0.4873 0.1958, 0.3132 -0.4718 0.1958, 0.3765 -0.4993 0.1958, 0.3358 -0.4481 0.1958, 0.3518 -0.4196 0.1958, 0.3479 -0.2765 0.1958, 0.3303 -0.2484 0.1958, 0.3765 -0.1956 0.1958, 0.3032 -0.2224 0.1958, 0.2747 -0.206 0.1958, 0.2413 -0.1962 0.1958, 0.2335 -0.1956 0.1958, 0.3608 -0.3878 0.1958, 0.3637 -0.3531 0.1958, 0.3594 -0.3104 0.1958, 0.2149 -0.501 0.1958, 0.091 -0.6687 0.1958, 0.3765 -0.6687 0.1958, 0.2231 -0.5011 0.1958, 0.2407 -0.4993 0.1958, 0.26 -0.4973 0.1958, 0.1 -0.0437 0.1958, 0.1 0.0563 0.1958, 0.3765 0.6813 0.1958, 0.091 0.6813 0.1958, 0.3765 -0.1187 0.1958, 0.091 -0.0437 0.1958, -0.0895 0.0563 0.1958, -0.1 0.0563 0.1958, -0.1188 0.6813 0.1958, -0.1188 -0.1187 0.1958, 0.091 0.0563 0.1958, -0.0895 0.6813 0.1958, -1.505 -0.1187 0.1958, -1.505 0.6813 0.1958, -0.89 0.0563 0.1958, -0.89 -0.0437 0.1958, -0.69 -0.0437 0.1958, -0.69 0.0563 0.1958, -0.6808 0.6813 0.1958, -0.39 0.6813 0.1958, 0.6165 0.6813 0.1958, 0.6165 -0.1187 0.1958, 0.69 -0.0437 0.1958, 0.69 0.0563 0.1958, 0.89 0.0563 0.1958, 1.1975 0.6813 0.1958, 0.89 -0.0437 0.1958, 1.1975 -0.1187 0.1958, 0.6165 -0.1956 0.1958, -1.505 -0.1956 0.1958, -1.505 -0.4993 0.1958, -0.6808 -0.4993 0.1958, -0.5974 -0.4133 0.1958, -0.4735 -0.4133 0.1958, -0.6278 -0.4974 0.1958, -0.4448 -0.4974 0.1958, -0.39 -0.4993 0.1958, -0.4009 -0.4974 0.1958, -0.39 -0.1956 0.1958, -0.5144 -0.1974 0.1958, -0.5546 -0.1974 0.1958, -0.6717 -0.4974 0.1958, -0.364 -0.4152 0.1958, -0.3468 -0.442 0.1958, -0.3221 -0.4657 0.1958, -0.2908 -0.4839 0.1958, -0.1188 -0.1956 0.1958, -0.2222 -0.1974 0.1958, -0.2655 -0.2021 0.1958, -0.3006 -0.2144 0.1958, -0.3333 -0.2363 0.1958, -0.3336 -0.2366 0.1958, -0.3548 -0.2601 0.1958, -0.3688 -0.2859 0.1958, -0.2562 -0.4942 0.1958, -0.2191 -0.4974 0.1958, -0.1188 -0.4993 0.1958, -0.1375 -0.4974 0.1958, -0.1375 -0.1974 0.1958, -0.3768 -0.3154 0.1958, -0.379 -0.3437 0.1958, -0.3748 -0.3838 0.1958, -0.0895 -0.1956 0.1958, -0.0895 -0.4993 0.1958, -0.0717 -0.1974 0.1958, -0.0717 -0.2304 0.1958, -0.079 -0.4645 0.1958, -0.079 -0.4974 0.1958, 0.082 -0.4974 0.1958, 0.082 -0.1974 0.1958, 0.0417 -0.3621 0.1958, 0.0417 -0.4645 0.1958, -0.0644 -0.3621 0.1958, -0.0644 -0.3291 0.1958, 0.0417 -0.3291 0.1958, 0.0417 -0.2304 0.1958, 0.6165 -0.4993 0.1958, 0.543 -0.4974 0.1958, 0.543 -0.1974 0.1958, 0.3893 -0.4974 0.1958, -0.0895 -0.6687 0.1958, -0.1188 -0.6687 0.1958, -0.39 -0.6687 0.1958, -0.6808 -0.6687 0.1958, -1.505 -0.6687 0.1958, 0.6165 -0.6687 0.1958, 1.1975 -0.1956 0.1958, 1.1975 -0.4993 0.1958, 1.1975 -0.6687 0.1958, 1.505 0.6813 0.1958, 1.505 -0.1187 0.1958, 1.505 -0.1956 0.1958, 1.505 -0.4993 0.1958, 1.505 -0.6687 0.1958
            ]
        }
        coordIndex [
            0,1,2,-1,3,4,5,-1,6,7,8,-1,9,10,11,-1,11,12,9,-1,9,12,13,-1,9,13,14,-1,15,16,10,-1,10,16,17,-1,10,17,11,-1,11,17,18,-1,11,18,19,-1,19,18,20,-1,19,20,21,-1,21,22,19,-1,19,22,23,-1,19,23,24,-1,25,26,19,-1,19,26,27,-1,28,29,30,-1,30,29,31,-1,27,32,19,-1,19,32,31,-1,19,31,33,-1,33,31,29,-1,24,34,19,-1,19,34,35,-1,19,35,25,-1,15,10,36,-1,36,10,37,-1,36,37,38,-1,39,40,41,-1,41,40,42,-1,41,42,43,-1,44,45,46,-1,46,45,47,-1,47,48,46,-1,46,48,49,-1,46,49,50,-1,43,51,41,-1,41,51,52,-1,41,52,46,-1,46,52,53,-1,46,53,44,-1,14,54,55,-1,55,54,56,-1,54,57,56,-1,56,57,58,-1,56,58,41,-1,41,58,59,-1,41,59,39,-1,60,61,62,-1,62,61,63,-1,64,37,60,-1,60,37,65,-1,66,67,68,-1,68,67,69,-1,61,70,63,-1,63,70,66,-1,63,66,71,-1,71,66,68,-1,72,73,74,-1,75,76,4,-1,4,76,77,-1,74,73,77,-1,77,73,78,-1,77,78,4,-1,4,78,79,-1,4,79,5,-1,60,62,64,-1,64,62,80,-1,64,80,81,-1,82,81,83,-1,83,81,80,-1,83,80,84,-1,84,80,85,-1,84,85,86,-1,86,85,87,-1,38,37,50,-1,50,37,64,-1,50,64,46,-1,46,64,81,-1,46,81,88,-1,74,75,72,-1,72,75,4,-1,72,4,89,-1,89,4,3,-1,89,3,90,-1,90,3,91,-1,92,93,94,-1,94,93,95,-1,94,95,91,-1,91,95,96,-1,96,95,97,-1,96,97,98,-1,98,97,99,-1,98,99,100,-1,5,98,3,-1,3,98,100,-1,3,100,91,-1,91,100,101,-1,91,101,94,-1,102,103,96,-1,96,103,104,-1,96,104,105,-1,79,68,5,-1,5,68,69,-1,5,69,98,-1,98,69,106,-1,98,106,107,-1,107,108,98,-1,98,108,109,-1,98,109,110,-1,110,111,98,-1,98,111,112,-1,98,112,113,-1,105,114,96,-1,96,114,115,-1,96,115,116,-1,116,115,117,-1,116,117,106,-1,106,117,118,-1,106,118,107,-1,113,119,98,-1,98,119,120,-1,98,120,96,-1,96,120,121,-1,96,121,102,-1,67,6,69,-1,69,6,8,-1,69,8,106,-1,106,8,122,-1,106,122,116,-1,116,122,123,-1,7,65,8,-1,8,65,37,-1,8,37,122,-1,122,37,10,-1,122,10,124,-1,124,125,122,-1,122,125,126,-1,122,126,123,-1,123,126,127,-1,123,127,9,-1,9,127,128,-1,9,128,10,-1,10,128,129,-1,10,129,124,-1,130,131,132,-1,132,131,126,-1,132,126,133,-1,133,126,125,-1,133,125,134,-1,134,125,135,-1,88,136,137,-1,137,138,88,-1,88,138,0,-1,88,0,46,-1,46,0,2,-1,46,2,41,-1,41,2,139,-1,14,55,9,-1,9,55,140,-1,9,140,123,-1,123,140,141,-1,123,141,116,-1,116,141,142,-1,116,142,96,-1,96,142,143,-1,96,143,91,-1,91,143,144,-1,91,144,90,-1,139,137,41,-1,41,137,136,-1,41,136,56,-1,56,136,145,-1,82,86,81,-1,81,86,87,-1,81,87,88,-1,88,87,146,-1,88,146,136,-1,136,146,147,-1,136,147,145,-1,145,147,148,-1,85,149,87,-1,87,149,150,-1,87,150,146,-1,146,150,151,-1,146,151,147,-1,147,151,152,-1,147,152,148,-1,148,152,153,-1,
        ]
    }
}
Shape{
    appearance Appearance {
        material  Material 	{
            diffuseColor 0.2235294117647059 0.2235294117647059 0.2235294117647059
            specularColor 0.19607843137254902 0.19607843137254902 0.19607843137254902
            ambientIntensity 0.2235
            transparency 0.0
            shininess 0.5
        }
    }
    geometry IndexedFaceSet {
        ccw TRUE
        solid FALSE
        coord DEF co Coordinate {
            point [
                -0.235 -1.6587 0.5308, -0.235 -1.6587 1.3008, -0.381 -1.6587 0.5308, -0.381 -1.6587 1.3008
            ]
        }
        coordIndex [
            0,1,2,-1,2,1,3,-1,
        ]
    }
}
Shape{
    appearance Appearance {
        material  Material 	{
            diffuseColor 1.0 0.6784313725490196 0.36470588235294116
            specularColor 0.8784313725490196 0.596078431372549 0.3215686274509804
            ambientIntensity 0.7388
            transparency 0.0
            shininess 0.5
        }
    }
    geometry IndexedFaceSet {
        ccw TRUE
        solid FALSE
        coord DEF co Coordinate {
            point [
                1.1975 -0.6687 0.1958, 1.505 -0.6687 0.1958, 1.505 -0.6687 1.4958, -1.025 -0.6687 0.5308, -1.505 -0.6687 0.1958, -0.6808 -0.6687 0.1958, -0.235 -0.6687 1.3008, -1.505 -0.6687 1.4958, -0.235 -0.6687 0.5308, -0.39 -0.6687 0.1958, -0.1188 -0.6687 0.1958, -1.025 -0.6687 1.3008, -0.0895 -0.6687 0.1958, 0.091 -0.6687 0.1958, 0.3765 -0.6687 0.1958, 0.6165 -0.6687 0.1958
            ]
        }
        coordIndex [
            0,1,2,-1,3,4,5,-1,6,2,7,-1,3,5,8,-1,8,5,9,-1,8,9,10,-1,4,3,7,-1,7,3,11,-1,7,11,6,-1,10,12,8,-1,8,12,13,-1,8,13,6,-1,6,13,14,-1,6,14,2,-1,2,14,15,-1,2,15,0,-1,
        ]
    }
}
Shape{
    appearance Appearance {
        material  Material 	{
            diffuseColor 0.7529411764705882 0.7529411764705882 0.7529411764705882
            specularColor 0.3764705882352941 0.3764705882352941 0.3764705882352941
            ambientIntensity 0.7529
            transparency 0.0
            shininess 0.5
        }
    }
    geometry IndexedFaceSet {
        ccw TRUE
        solid FALSE
        coord DEF co Coordinate {
            point [
                -1.025 -0.8587 0.5208, -1.025 -0.6987 0.5208, -1.025 -0.8587 0.5308, -1.025 -0.6987 0.5308, -1.025 -0.6987 1.3108, -1.025 -0.8587 1.3108, -1.025 -0.6987 1.3008, -1.025 -0.8587 1.3008, -1.495 -0.8587 0.1158, -1.495 -0.6987 0.1158, -1.1 -0.8587 0.1158, -1.1 -0.6987 0.1158
            ]
        }
        coordIndex [
            0,1,2,-1,2,1,3,-1,4,5,6,-1,6,5,7,-1,8,9,10,-1,10,9,11,-1,
        ]
    }
}
Shape{
    appearance Appearance {
        material  Material 	{
            diffuseColor 1.0 0.6784313725490196 0.36470588235294116
            specularColor 0.8784313725490196 0.596078431372549 0.3215686274509804
            ambientIntensity 0.7388
            transparency 0.0
            shininess 0.5
        }
    }
    geometry IndexedFaceSet {
        ccw TRUE
        solid FALSE
        coord DEF co Coordinate {
            point [
                1.505 -0.6687 1.4958, 1.505 -0.6687 0.1958, 1.505 -0.4993 0.1958, 1.505 0.6813 0.1958, 1.505 0.6813 1.4958, 1.505 -0.1187 0.1958, 1.505 -0.1956 0.1958, -1.505 0.6813 1.4958, -1.505 0.6813 0.1958, -1.505 -0.6687 1.4958, -1.505 -0.1187 0.1958, -1.505 -0.1956 0.1958, -1.505 -0.4993 0.1958, -1.505 -0.6687 0.1958, 1.1975 0.6813 0.1958, 0.6165 0.6813 0.1958, 0.3765 0.6813 0.1958, 0.091 0.6813 0.1958, -0.0895 0.6813 0.1958, -0.1188 0.6813 0.1958, -0.39 0.6813 0.1958, -0.6808 0.6813 0.1958
            ]
        }
        coordIndex [
            0,1,2,-1,3,4,5,-1,5,4,0,-1,5,0,6,-1,6,0,2,-1,7,8,9,-1,9,8,10,-1,10,11,9,-1,9,11,12,-1,9,12,13,-1,3,14,4,-1,4,14,15,-1,15,16,4,-1,4,16,17,-1,4,17,7,-1,7,17,18,-1,7,18,19,-1,19,20,7,-1,7,20,21,-1,7,21,8,-1,
        ]
    }
}
Shape{
    appearance Appearance {
        material  Material 	{
            diffuseColor 0.7529411764705882 0.7529411764705882 0.7529411764705882
            specularColor 0.3764705882352941 0.3764705882352941 0.3764705882352941
            ambientIntensity 0.7529
            transparency 0.0
            shininess 0.5
        }
    }
    geometry IndexedFaceSet {
        ccw TRUE
        solid FALSE
        coord DEF co Coordinate {
            point [
                -0.1 -0.0437 -0.8042, -0.1 -0.0437 0.1958, -0.1 0.0563 -0.8042, -0.1 0.0563 0.1958, 0.1 0.0563 -0.8042, 0.0966 0.0563 -0.8301, 0.0866 0.0563 -0.8542, -0.0895 0.0563 0.1958, 0.1 0.0563 0.1958, 0.091 0.0563 0.1958, 0.0707 0.0563 -0.875, 0.05 0.0563 -0.8909, 0.0259 0.0563 -0.9008, -0.0 0.0563 -0.9042, -0.0259 0.0563 -0.9008, -0.05 0.0563 -0.8909, -0.0966 0.0563 -0.8301, -0.0866 0.0563 -0.8542, -0.0707 0.0563 -0.875, 0.1 -0.0437 -0.8042, 0.1 -0.0437 0.1958, 0.091 -0.0437 0.1958, -0.0966 -0.0437 -0.8301, -0.0866 -0.0437 -0.8542, -0.0895 -0.0437 0.1958, -0.0707 -0.0437 -0.875, -0.05 -0.0437 -0.8909, -0.0259 -0.0437 -0.9008, 0.0966 -0.0437 -0.8301, 0.0866 -0.0437 -0.8542, 0.0707 -0.0437 -0.875, 0.05 -0.0437 -0.8909, -0.0 -0.0437 -0.9042, 0.0259 -0.0437 -0.9008, 1.505 -0.6687 1.4958, 1.535 -0.6787 1.4958, 1.495 -0.6787 1.4958, -1.505 0.6813 1.4958, -1.535 0.6913 1.4958, -1.495 0.6913 1.4958, -1.535 -0.6787 1.4958, -1.505 -0.6687 1.4958, -1.495 -0.6787 1.4958, -1.495 -0.6987 1.4958, 1.495 -0.6987 1.4958, 1.535 0.6913 1.4958, 1.505 0.6813 1.4958, 1.495 0.6913 1.4958, 1.495 0.7113 1.4958, -1.495 0.7113 1.4958, 1.695 -0.1138 0.1158, 1.695 -0.6787 0.1158, 1.535 -0.1138 0.1158, 1.535 -0.6787 0.1158, -1.695 0.1264 0.1158, -1.695 0.6913 0.1158, -1.535 0.1264 0.1158, -1.535 0.6913 0.1158, 1.535 0.6913 0.1158, 1.695 0.6913 0.1158, 1.535 0.1264 0.1158, 1.695 0.1264 0.1158, 1.695 -0.6787 1.5558, 1.695 0.6913 1.5558, 1.695 0.204 -0.5233, 1.695 -0.1914 -0.5233, 1.695 0.2072 -0.6234, 1.695 -0.1946 -0.6234, 1.695 -0.0388 -0.9842, 1.695 0.0514 -0.9842, 1.695 -0.1012 -0.9058, 1.695 0.1138 -0.9058, 1.695 0.1614 -0.8177, 1.695 0.1929 -0.7226, 1.695 -0.1488 -0.8177, 1.695 -0.1803 -0.7226, 1.595 0.6913 1.6558, 1.595 -0.6787 1.6558, 1.6209 -0.6787 1.6523, 1.6209 0.6913 1.6523, 1.645 -0.6787 1.6424, 1.645 0.6913 1.6424, 1.6657 -0.6787 1.6265, 1.6657 0.6913 1.6265, 1.6816 -0.6787 1.6058, 1.6816 0.6913 1.6058, 1.6916 -0.6787 1.5816, 1.6916 0.6913 1.5816, 1.535 -0.1914 -0.5233, 1.535 0.204 -0.5233, 1.535 -0.1946 -0.6234, 1.535 0.2072 -0.6234, 1.535 -0.1803 -0.7226, 1.535 0.0514 -0.9842, 1.535 -0.0388 -0.9842, 1.535 0.1138 -0.9058, 1.535 -0.1012 -0.9058, 1.535 0.1614 -0.8177, 1.535 0.1929 -0.7226, 1.535 -0.1488 -0.8177, 0.9375 0.2942 1.6558, 0.6814 0.0064 1.6558, 0.9521 -0.3058 1.6558, -0.2845 -0.2089 1.6558, -0.1894 -0.1404 1.6558, -0.1842 -0.0963 1.6558, 0.1226 -0.2966 1.6558, 0.0545 -0.3115 1.6558, 0.3137 -0.2984 1.6558, 1.495 -0.6787 1.6558, -0.1705 -0.0604 1.6558, -0.6307 0.1006 1.6558, -0.6455 0.0474 1.6558, -0.6503 -0.0122 1.6558, -0.3071 -0.2207 1.6558, 0.1297 0.0589 1.6558, 0.0866 0.0369 1.6558, 0.1433 0.0047 1.6558, 0.8423 0.2942 1.6558, 1.495 0.6913 1.6558, 1.495 0.7713 1.6558, 0.342 -0.3092 1.6558, 0.2841 -0.2761 1.6558, 0.2383 -0.2228 1.6558, 0.1867 -0.2652 1.6558, 0.6098 -0.0118 1.6558, 0.6082 -0.0118 1.6558, 0.6159 -0.0232 1.6558, 0.6082 -0.3058 1.6558, 0.6228 -0.0342 1.6558, 0.8497 -0.3058 1.6558, 0.1628 0.0857 1.6558, -1.595 0.6913 1.6558, -1.595 -0.6787 1.6558, -1.495 -0.6787 1.6558, -0.148 -0.0279 1.6558, -0.4819 0.2295 1.6558, -0.5269 0.2138 1.6558, -0.5691 0.1862 1.6558, -0.6056 0.1467 1.6558, -0.3419 0.2232 1.6558, -0.4064 0.2351 1.6558, -0.425 0.2356 1.6558, 0.2462 -0.1117 1.6558, 0.278 -0.0425 1.6558, 0.1907 -0.039 1.6558, 0.2961 0.0347 1.6558, 0.3814 0.107 1.6558, 0.3721 0.024 1.6558, 0.4422 -0.2308 1.6558, -1.495 0.6913 1.6558, -0.2845 -0.2747 1.6558, -0.1719 -0.2196 1.6558, -0.1844 -0.1853 1.6558, 0.289 -0.2807 1.6558, 0.1868 0.2282 1.6558, 0.1956 0.2028 1.6558, 0.2936 0.1625 1.6558, 0.1984 0.1749 1.6558, 0.2991 0.1342 1.6558, 0.1944 0.1414 1.6558, 0.3009 0.1055 1.6558, 0.1836 0.1141 1.6558, 0.1662 0.0894 1.6558, 0.6082 0.0129 1.6558, 0.6098 0.0129 1.6558, 0.6082 0.2942 1.6558, 0.616 0.0241 1.6558, 0.6228 0.0349 1.6558, -0.0882 -0.2939 1.6558, -0.1256 -0.2728 1.6558, -0.1526 -0.2483 1.6558, 0.3798 0.135 1.6558, 0.5277 0.2942 1.6558, 0.5277 -0.3058 1.6558, 0.4422 -0.2967 1.6558, 0.3482 -0.0537 1.6558, 0.3076 -0.1347 1.6558, 0.4394 -0.2322 1.6558, -0.6294 -0.1255 1.6558, -0.4891 -0.2422 1.6558, -0.6455 -0.0708 1.6558, -0.4385 -0.2473 1.6558, -0.3692 -0.2407 1.6558, -0.0375 -0.3085 1.6558, 1.495 -0.7587 1.6558, 0.0194 -0.3131 1.6558, -0.1021 0.2273 1.6558, -0.0847 0.2521 1.6558, -0.2845 0.2777 1.6558, -0.0592 0.2738 1.6558, 0.0897 0.2973 1.6558, 0.125 0.2859 1.6558, 0.1505 0.2707 1.6558, -0.2845 0.1972 1.6558, -0.1451 -0.0247 1.6558, -0.1008 0.1025 1.6558, -0.6051 -0.1678 1.6558, -0.5705 -0.2038 1.6558, -0.5331 -0.2274 1.6558, 0.4096 -0.3089 1.6558, 0.3751 -0.3131 1.6558, -0.5127 -0.3077 1.6558, -0.5735 -0.2892 1.6558, -1.495 -0.7587 1.6558, -0.6223 -0.2607 1.6558, -0.669 -0.2151 1.6558, -0.7029 -0.1596 1.6558, -0.723 -0.0969 1.6558, -0.7075 0.1168 1.6558, -1.495 0.7713 1.6558, -0.6775 0.174 1.6558, -0.6327 0.2255 1.6558, 0.3741 0.1625 1.6558, 0.1726 0.2499 1.6558, -0.0809 0.0735 1.6558, -0.1044 0.0098 1.6558, -0.0452 0.0408 1.6558, -0.112 0.1318 1.6558, -0.1162 0.1654 1.6558, -0.1121 0.2006 1.6558, 0.3633 -0.2439 1.6558, 0.3874 -0.2473 1.6558, 0.4128 -0.2431 1.6558, -0.3452 -0.3001 1.6558, -0.4107 -0.3116 1.6558, -0.4496 -0.3131 1.6558, -0.5765 0.2656 1.6558, -0.5126 0.2908 1.6558, -0.4453 0.3009 1.6558, 0.0158 0.2999 1.6558, 0.0455 0.3015 1.6558, -0.7308 -0.0171 1.6558, -0.7255 0.0507 1.6558, 0.2836 -0.1703 1.6558, 0.3268 -0.222 1.6558, 0.3448 -0.236 1.6558, -0.0285 0.2893 1.6558, -0.3539 0.2965 1.6558, -0.4257 0.3015 1.6558, 1.495 -0.6987 0.1158, 1.495 -0.8587 0.1158, 1.1 -0.6987 0.1158, 1.1 -0.8587 0.1158, -1.535 -0.6787 0.1158, -1.695 -0.6787 0.1158, -1.535 -0.1138 0.1158, -1.695 -0.1138 0.1158, -1.695 0.6913 1.5558, -1.695 -0.6787 1.5558, -1.695 -0.1914 -0.5233, -1.695 0.204 -0.5233, -1.695 -0.1946 -0.6234, -1.695 0.2072 -0.6234, -1.695 0.0514 -0.9842, -1.695 -0.0388 -0.9842, -1.695 0.1138 -0.9058, -1.695 -0.1012 -0.9058, -1.695 -0.1488 -0.8177, -1.695 -0.1803 -0.7226, -1.695 0.1614 -0.8177, -1.695 0.1929 -0.7226, -1.6209 0.6913 1.6523, -1.6209 -0.6787 1.6523, -1.645 0.6913 1.6424, -1.645 -0.6787 1.6424, -1.6657 0.6913 1.6265, -1.6657 -0.6787 1.6265, -1.6816 0.6913 1.6058, -1.6816 -0.6787 1.6058, -1.6916 0.6913 1.5816, -1.6916 -0.6787 1.5816, -1.535 0.204 -0.5233, -1.535 -0.1914 -0.5233, -1.535 0.2072 -0.6234, -1.535 -0.1946 -0.6234, -1.535 -0.0388 -0.9842, -1.535 0.0514 -0.9842, -1.535 -0.1012 -0.9058, -1.535 0.1138 -0.9058, -1.535 0.1614 -0.8177, -1.535 0.1929 -0.7226, -1.535 -0.1488 -0.8177, -1.535 -0.1803 -0.7226, -1.495 -0.8587 1.5558, -1.495 -0.8587 0.1158, -1.1 -0.8587 0.3158, -1.1 -0.8587 0.1158, 1.025 -0.8587 0.5208, 1.025 -0.8587 1.3108, 1.495 -0.8587 1.5558, -1.025 -0.8587 1.3108, -1.025 -0.8587 1.3008, 1.1 -0.8587 0.3158, -1.025 -0.8587 0.5208, -1.025 -0.8587 0.5308, -1.495 -0.7846 1.6523, 1.495 -0.7846 1.6523, -1.495 -0.8087 1.6424, 1.495 -0.8087 1.6424, -1.495 -0.8294 1.6265, 1.495 -0.8294 1.6265, -1.495 -0.8453 1.6058, 1.495 -0.8453 1.6058, -1.495 -0.8553 1.5816, 1.495 -0.8553 1.5816, -1.1 -0.6987 0.1158, -1.495 -0.6987 0.1158, -1.1 -0.6987 0.3158, 1.025 -0.6987 0.5208, 1.1 -0.6987 0.3158, -1.025 -0.6987 0.5208, -1.025 -0.6987 0.5308, -1.025 -0.6987 1.3008, 1.025 -0.6987 1.3108, -1.025 -0.6987 1.3108, 1.195 0.8713 0.1158, 1.195 0.7113 0.1158, -1.195 0.8713 0.1158, -1.195 0.7113 0.1158, 1.495 0.7972 1.6523, -1.495 0.7972 1.6523, 1.495 0.8213 1.6424, -1.495 0.8213 1.6424, 1.495 0.842 1.6265, -1.495 0.842 1.6265, 1.495 0.8579 1.6058, -1.495 0.8579 1.6058, 1.495 0.8679 1.5816, -1.495 0.8679 1.5816, 1.495 0.8713 1.5558, -1.495 0.8713 1.5558
            ]
        }
        coordIndex [
            0,1,2,-1,2,1,3,-1,4,5,6,-1,2,3,7,-1,8,4,9,-1,9,4,6,-1,9,6,7,-1,6,10,7,-1,7,10,11,-1,7,11,12,-1,12,13,7,-1,7,13,14,-1,7,14,15,-1,16,2,17,-1,17,2,7,-1,17,7,18,-1,18,7,15,-1,4,8,19,-1,19,8,20,-1,19,20,21,-1,22,23,0,-1,0,23,24,-1,0,24,1,-1,23,25,24,-1,24,25,26,-1,24,26,27,-1,28,19,29,-1,29,19,21,-1,29,21,30,-1,30,21,24,-1,30,24,31,-1,27,32,24,-1,24,32,33,-1,24,33,31,-1,34,35,36,-1,37,38,39,-1,38,37,40,-1,40,37,41,-1,40,41,42,-1,42,41,34,-1,42,34,43,-1,43,34,36,-1,43,36,44,-1,35,34,45,-1,45,34,46,-1,45,46,47,-1,47,46,37,-1,47,37,48,-1,48,37,39,-1,48,39,49,-1,50,51,52,-1,52,51,53,-1,54,55,56,-1,56,55,57,-1,58,59,60,-1,60,59,61,-1,62,51,63,-1,63,51,50,-1,59,63,61,-1,61,63,50,-1,61,50,64,-1,64,50,65,-1,64,65,66,-1,66,65,67,-1,68,69,70,-1,70,69,71,-1,71,72,70,-1,70,72,73,-1,70,73,74,-1,74,73,66,-1,74,66,75,-1,75,66,67,-1,76,77,78,-1,76,78,79,-1,79,78,80,-1,79,80,81,-1,81,80,82,-1,81,82,83,-1,83,82,84,-1,83,84,85,-1,85,84,86,-1,85,86,87,-1,87,86,62,-1,87,62,63,-1,45,58,35,-1,35,58,60,-1,53,35,52,-1,52,35,60,-1,52,60,88,-1,88,60,89,-1,88,89,90,-1,90,89,91,-1,90,91,92,-1,93,94,95,-1,95,94,96,-1,95,96,97,-1,97,96,98,-1,98,96,91,-1,91,96,99,-1,91,99,92,-1,100,101,102,-1,103,104,105,-1,106,107,108,-1,109,77,102,-1,110,111,105,-1,105,111,112,-1,105,112,103,-1,103,112,113,-1,103,113,114,-1,115,116,117,-1,102,77,100,-1,100,77,76,-1,100,76,118,-1,118,76,119,-1,118,119,120,-1,108,107,121,-1,122,123,124,-1,125,126,127,-1,127,126,128,-1,127,128,129,-1,129,128,130,-1,115,117,131,-1,132,133,134,-1,135,136,110,-1,110,136,137,-1,137,138,110,-1,110,138,139,-1,110,139,111,-1,140,141,135,-1,135,141,142,-1,135,142,136,-1,143,144,145,-1,145,144,146,-1,145,146,117,-1,147,148,149,-1,132,134,150,-1,151,152,103,-1,103,152,153,-1,103,153,104,-1,106,108,124,-1,124,108,154,-1,124,154,122,-1,155,156,157,-1,157,156,158,-1,157,158,159,-1,159,158,160,-1,159,160,161,-1,161,160,146,-1,146,160,162,-1,146,162,117,-1,117,162,163,-1,117,163,131,-1,164,165,166,-1,166,165,167,-1,166,167,168,-1,169,170,151,-1,151,170,171,-1,151,171,152,-1,172,147,173,-1,173,147,149,-1,173,149,174,-1,174,149,175,-1,148,176,149,-1,149,176,177,-1,149,177,178,-1,179,180,181,-1,181,180,182,-1,181,182,113,-1,113,182,183,-1,113,183,114,-1,169,151,184,-1,184,151,185,-1,184,185,186,-1,187,188,189,-1,189,188,190,-1,191,192,173,-1,173,192,193,-1,140,135,194,-1,194,135,195,-1,194,195,196,-1,197,198,179,-1,179,198,199,-1,179,199,180,-1,102,130,109,-1,109,130,128,-1,109,128,185,-1,185,128,174,-1,175,200,174,-1,174,200,201,-1,174,201,185,-1,185,201,121,-1,185,121,186,-1,186,121,107,-1,202,203,204,-1,204,203,205,-1,204,205,134,-1,134,205,206,-1,134,206,150,-1,150,206,207,-1,150,207,208,-1,150,209,210,-1,210,209,211,-1,210,211,212,-1,172,173,213,-1,213,173,193,-1,213,193,157,-1,157,193,214,-1,157,214,155,-1,196,195,215,-1,215,195,216,-1,215,216,217,-1,196,218,194,-1,194,218,219,-1,194,219,189,-1,189,219,220,-1,189,220,187,-1,221,222,223,-1,151,224,185,-1,185,224,225,-1,185,225,204,-1,204,225,226,-1,204,226,202,-1,212,227,210,-1,210,227,228,-1,210,228,229,-1,230,231,210,-1,208,232,150,-1,150,232,233,-1,150,233,209,-1,168,118,166,-1,166,118,120,-1,166,120,173,-1,173,120,210,-1,173,210,191,-1,191,210,231,-1,177,234,178,-1,178,234,235,-1,178,235,223,-1,223,235,236,-1,223,236,221,-1,190,237,189,-1,189,237,230,-1,189,230,238,-1,238,230,210,-1,238,210,239,-1,239,210,229,-1,240,241,242,-1,242,241,243,-1,244,245,246,-1,246,245,247,-1,248,55,249,-1,249,55,54,-1,245,249,247,-1,247,249,54,-1,247,54,250,-1,250,54,251,-1,250,251,252,-1,252,251,253,-1,254,255,256,-1,256,255,257,-1,257,258,256,-1,256,258,259,-1,256,259,260,-1,260,259,252,-1,260,252,261,-1,261,252,253,-1,133,132,262,-1,133,262,263,-1,263,262,264,-1,263,264,265,-1,265,264,266,-1,265,266,267,-1,267,266,268,-1,267,268,269,-1,269,268,270,-1,269,270,271,-1,271,270,248,-1,271,248,249,-1,40,244,38,-1,38,244,246,-1,57,38,56,-1,56,38,246,-1,56,246,272,-1,272,246,273,-1,272,273,274,-1,274,273,275,-1,276,277,278,-1,278,277,279,-1,279,280,278,-1,278,280,281,-1,278,281,282,-1,282,281,274,-1,282,274,283,-1,283,274,275,-1,284,285,286,-1,286,285,287,-1,288,241,289,-1,289,241,290,-1,289,290,291,-1,291,290,284,-1,291,284,292,-1,243,241,293,-1,293,241,288,-1,293,288,286,-1,286,288,294,-1,286,294,284,-1,284,294,295,-1,284,295,292,-1,185,204,296,-1,185,296,297,-1,297,296,298,-1,297,298,299,-1,299,298,300,-1,299,300,301,-1,301,300,302,-1,301,302,303,-1,303,302,304,-1,303,304,305,-1,305,304,284,-1,305,284,290,-1,306,307,308,-1,308,307,43,-1,309,310,311,-1,311,310,308,-1,311,308,312,-1,312,308,43,-1,312,43,313,-1,242,310,240,-1,240,310,309,-1,240,309,44,-1,44,309,314,-1,44,314,43,-1,43,314,315,-1,43,315,313,-1,316,317,318,-1,318,317,319,-1,210,120,320,-1,210,320,321,-1,321,320,322,-1,321,322,323,-1,323,322,324,-1,323,324,325,-1,325,324,326,-1,325,326,327,-1,327,326,328,-1,327,328,329,-1,329,328,330,-1,329,330,331,-1,
        ]
    }
}
Shape{
    appearance Appearance {
        material  Material 	{
            diffuseColor 0.9254901960784314 0.9254901960784314 0.9254901960784314
            specularColor 0.4627450980392157 0.4627450980392157 0.4627450980392157
            ambientIntensity 0.9255
            transparency 0.0
            shininess 0.5
        }
    }
    geometry IndexedFaceSet {
        ccw TRUE
        solid FALSE
        coord DEF co Coordinate {
            point [
                -0.2845 -0.2089 1.6458, -0.2845 -0.2747 1.6458, -0.2845 -0.2089 1.6558, -0.2845 -0.2747 1.6558, -0.4496 -0.3131 1.6458, -0.4496 -0.3131 1.6558, -0.4107 -0.3116 1.6558, -0.4107 -0.3116 1.6458, -0.3452 -0.3001 1.6558, -0.3452 -0.3001 1.6458, -0.7308 -0.0171 1.6458, -0.7308 -0.0171 1.6558, -0.723 -0.0969 1.6558, -0.723 -0.0969 1.6458, -0.7029 -0.1596 1.6558, -0.7029 -0.1596 1.6458, -0.669 -0.2151 1.6558, -0.669 -0.2151 1.6458, -0.6223 -0.2607 1.6558, -0.6223 -0.2607 1.6458, -0.5735 -0.2892 1.6558, -0.5735 -0.2892 1.6458, -0.5127 -0.3077 1.6558, -0.5127 -0.3077 1.6458, -0.4257 0.3015 1.6458, -0.4257 0.3015 1.6558, -0.4453 0.3009 1.6558, -0.4453 0.3009 1.6458, -0.5126 0.2908 1.6558, -0.5126 0.2908 1.6458, -0.5765 0.2656 1.6558, -0.5765 0.2656 1.6458, -0.6327 0.2255 1.6558, -0.6327 0.2255 1.6458, -0.6775 0.174 1.6558, -0.6775 0.174 1.6458, -0.7075 0.1168 1.6558, -0.7075 0.1168 1.6458, -0.7255 0.0507 1.6558, -0.7255 0.0507 1.6458, -0.2845 0.2777 1.6458, -0.2845 0.2777 1.6558, -0.3539 0.2965 1.6558, -0.3539 0.2965 1.6458, -0.2845 0.1972 1.6458, -0.2845 0.1972 1.6558, -0.425 0.2356 1.6458, -0.425 0.2356 1.6558, -0.4064 0.2351 1.6558, -0.4064 0.2351 1.6458, -0.3419 0.2232 1.6558, -0.3419 0.2232 1.6458, -0.6503 -0.0122 1.6458, -0.6503 -0.0122 1.6558, -0.6455 0.0474 1.6558, -0.6455 0.0474 1.6458, -0.6307 0.1006 1.6558, -0.6307 0.1006 1.6458, -0.6056 0.1467 1.6558, -0.6056 0.1467 1.6458, -0.5691 0.1862 1.6558, -0.5691 0.1862 1.6458, -0.5269 0.2138 1.6558, -0.5269 0.2138 1.6458, -0.4819 0.2295 1.6558, -0.4819 0.2295 1.6458, -0.4385 -0.2473 1.6458, -0.4385 -0.2473 1.6558, -0.4891 -0.2422 1.6558, -0.4891 -0.2422 1.6458, -0.5331 -0.2274 1.6558, -0.5331 -0.2274 1.6458, -0.5705 -0.2038 1.6558, -0.5705 -0.2038 1.6458, -0.6051 -0.1678 1.6558, -0.6051 -0.1678 1.6458, -0.6294 -0.1255 1.6558, -0.6294 -0.1255 1.6458, -0.6455 -0.0708 1.6558, -0.6455 -0.0708 1.6458, -0.3071 -0.2207 1.6558, -0.3071 -0.2207 1.6458, -0.3692 -0.2407 1.6558, -0.3692 -0.2407 1.6458, 0.6814 0.0064 1.6458, 0.9521 -0.3058 1.6458, 0.6814 0.0064 1.6558, 0.9521 -0.3058 1.6558, 0.8497 -0.3058 1.6458, 0.8497 -0.3058 1.6558, 0.6228 -0.0342 1.6458, 0.6228 -0.0342 1.6558, 0.6098 -0.0118 1.6458, 0.6098 -0.0118 1.6558, 0.6159 -0.0232 1.6558, 0.6159 -0.0232 1.6458, 0.6082 -0.0118 1.6458, 0.6082 -0.0118 1.6558, 0.6082 -0.3058 1.6458, 0.6082 -0.3058 1.6558, 0.5277 -0.3058 1.6458, 0.5277 -0.3058 1.6558, 0.5277 0.2942 1.6458, 0.5277 0.2942 1.6558, 0.6082 0.2942 1.6458, 0.6082 0.2942 1.6558, 0.6082 0.0129 1.6458, 0.6082 0.0129 1.6558, 0.6098 0.0129 1.6458, 0.6098 0.0129 1.6558, 0.6228 0.0349 1.6458, 0.6228 0.0349 1.6558, 0.616 0.0241 1.6558, 0.616 0.0241 1.6458, 0.8423 0.2942 1.6458, 0.8423 0.2942 1.6558, 0.9375 0.2942 1.6458, 0.9375 0.2942 1.6558, 0.2383 -0.2228 1.6458, 0.2383 -0.2228 1.6558, 0.2841 -0.2761 1.6558, 0.2841 -0.2761 1.6458, 0.289 -0.2807 1.6558, 0.289 -0.2807 1.6458, 0.3137 -0.2984 1.6558, 0.3137 -0.2984 1.6458, 0.342 -0.3092 1.6558, 0.342 -0.3092 1.6458, 0.3751 -0.3131 1.6558, 0.3751 -0.3131 1.6458, 0.0194 -0.3131 1.6458, 0.0194 -0.3131 1.6558, 0.0545 -0.3115 1.6558, 0.0545 -0.3115 1.6458, 0.1226 -0.2966 1.6558, 0.1226 -0.2966 1.6458, 0.1867 -0.2652 1.6558, 0.1867 -0.2652 1.6458, -0.1894 -0.1404 1.6458, -0.1894 -0.1404 1.6558, -0.1844 -0.1853 1.6558, -0.1844 -0.1853 1.6458, -0.1719 -0.2196 1.6558, -0.1719 -0.2196 1.6458, -0.1526 -0.2483 1.6558, -0.1526 -0.2483 1.6458, -0.1256 -0.2728 1.6558, -0.1256 -0.2728 1.6458, -0.0882 -0.2939 1.6558, -0.0882 -0.2939 1.6458, -0.0375 -0.3085 1.6558, -0.0375 -0.3085 1.6458, -0.0452 0.0408 1.6458, -0.0452 0.0408 1.6558, -0.1044 0.0098 1.6558, -0.1044 0.0098 1.6458, -0.1451 -0.0247 1.6558, -0.1451 -0.0247 1.6458, -0.148 -0.0279 1.6558, -0.148 -0.0279 1.6458, -0.1705 -0.0604 1.6558, -0.1705 -0.0604 1.6458, -0.1842 -0.0963 1.6558, -0.1842 -0.0963 1.6458, -0.1162 0.1654 1.6458, -0.1162 0.1654 1.6558, -0.112 0.1318 1.6558, -0.112 0.1318 1.6458, -0.1008 0.1025 1.6558, -0.1008 0.1025 1.6458, -0.0809 0.0735 1.6558, -0.0809 0.0735 1.6458, 0.0455 0.3015 1.6458, 0.0455 0.3015 1.6558, 0.0158 0.2999 1.6558, 0.0158 0.2999 1.6458, -0.0285 0.2893 1.6558, -0.0285 0.2893 1.6458, -0.0592 0.2738 1.6558, -0.0592 0.2738 1.6458, -0.0847 0.2521 1.6558, -0.0847 0.2521 1.6458, -0.1021 0.2273 1.6558, -0.1021 0.2273 1.6458, -0.1121 0.2006 1.6558, -0.1121 0.2006 1.6458, 0.1984 0.1749 1.6458, 0.1984 0.1749 1.6558, 0.1956 0.2028 1.6558, 0.1956 0.2028 1.6458, 0.1868 0.2282 1.6558, 0.1868 0.2282 1.6458, 0.1726 0.2499 1.6558, 0.1726 0.2499 1.6458, 0.1505 0.2707 1.6558, 0.1505 0.2707 1.6458, 0.125 0.2859 1.6558, 0.125 0.2859 1.6458, 0.0897 0.2973 1.6558, 0.0897 0.2973 1.6458, 0.0866 0.0369 1.6458, 0.0866 0.0369 1.6558, 0.1297 0.0589 1.6558, 0.1297 0.0589 1.6458, 0.1628 0.0857 1.6558, 0.1628 0.0857 1.6458, 0.1662 0.0894 1.6558, 0.1662 0.0894 1.6458, 0.1836 0.1141 1.6558, 0.1836 0.1141 1.6458, 0.1944 0.1414 1.6558, 0.1944 0.1414 1.6458, 0.2462 -0.1117 1.6458, 0.2462 -0.1117 1.6558, 0.1907 -0.039 1.6558, 0.1907 -0.039 1.6458, 0.1433 0.0047 1.6558, 0.1433 0.0047 1.6458, 0.3009 0.1055 1.6458, 0.3009 0.1055 1.6558, 0.2961 0.0347 1.6558, 0.2961 0.0347 1.6458, 0.278 -0.0425 1.6558, 0.278 -0.0425 1.6458, 0.2936 0.1625 1.6458, 0.2936 0.1625 1.6558, 0.2991 0.1342 1.6558, 0.2991 0.1342 1.6458, 0.3741 0.1625 1.6458, 0.3741 0.1625 1.6558, 0.3814 0.107 1.6458, 0.3814 0.107 1.6558, 0.3798 0.135 1.6558, 0.3798 0.135 1.6458, 0.2836 -0.1703 1.6458, 0.2836 -0.1703 1.6558, 0.3076 -0.1347 1.6558, 0.3076 -0.1347 1.6458, 0.3482 -0.0537 1.6558, 0.3482 -0.0537 1.6458, 0.3721 0.024 1.6558, 0.3721 0.024 1.6458, 0.3874 -0.2473 1.6458, 0.3874 -0.2473 1.6558, 0.3633 -0.2439 1.6558, 0.3633 -0.2439 1.6458, 0.3448 -0.236 1.6558, 0.3448 -0.236 1.6458, 0.3268 -0.222 1.6558, 0.3268 -0.222 1.6458, 0.4422 -0.2308 1.6458, 0.4422 -0.2308 1.6558, 0.4394 -0.2322 1.6558, 0.4394 -0.2322 1.6458, 0.4128 -0.2431 1.6558, 0.4128 -0.2431 1.6458, 0.4422 -0.2967 1.6458, 0.4422 -0.2967 1.6558, 0.4096 -0.3089 1.6558, 0.4096 -0.3089 1.6458, 0.1061 0.1247 1.6458, 0.0927 0.1073 1.6458, 0.0695 0.0885 1.6458, 0.0074 0.0829 1.6458, -0.0118 0.1008 1.6458, -0.0248 0.1195 1.6458, -0.0326 0.1398 1.6458, 0.0219 -0.2473 1.6458, -0.0172 -0.2435 1.6458, -0.0459 -0.2342 1.6458, -0.075 -0.0462 1.6458, -0.0917 -0.0681 1.6458, 0.0296 0.0686 1.6458, -0.0393 -0.0185 1.6458, 0.0091 0.0049 1.6458, -0.1031 -0.0942 1.6458, -0.1085 -0.1252 1.6458, -0.1089 -0.1366 1.6458, -0.1057 -0.165 1.6458, -0.0979 -0.1867 1.6458, -0.0858 -0.2048 1.6458, -0.0692 -0.2205 1.6458, -0.0688 -0.2208 1.6458, 0.0809 -0.2406 1.6458, 0.1309 -0.2225 1.6458, 0.1777 -0.1913 1.6458, 0.2028 -0.1673 1.6458, 0.1497 -0.0947 1.6458, 0.1022 -0.0464 1.6458, 0.0463 -0.0109 1.6458, -0.0357 0.165 1.6458, -0.0343 0.1818 1.6458, -0.0293 0.1987 1.6458, -0.0203 0.2142 1.6458, -0.0076 0.227 1.6458, 0.0061 0.2353 1.6458, 0.0229 0.2408 1.6458, 0.0449 0.243 1.6458, 0.0622 0.2413 1.6458, 0.0782 0.2358 1.6458, 0.092 0.2272 1.6458, 0.1031 0.2161 1.6458, 0.1107 0.2038 1.6458, 0.1142 0.1426 1.6458, 0.1177 0.1633 1.6458, 0.118 0.1688 1.6458, 0.116 0.1885 1.6458, 0.0296 0.0686 1.6558, 0.0074 0.0829 1.6558, -0.0118 0.1008 1.6558, -0.0248 0.1195 1.6558, -0.0326 0.1398 1.6558, -0.0357 0.165 1.6558, -0.0343 0.1818 1.6558, -0.0293 0.1987 1.6558, -0.0203 0.2142 1.6558, -0.0076 0.227 1.6558, 0.0061 0.2353 1.6558, 0.0229 0.2408 1.6558, 0.0449 0.243 1.6558, 0.0622 0.2413 1.6558, 0.0782 0.2358 1.6558, 0.092 0.2272 1.6558, 0.1031 0.2161 1.6558, 0.1107 0.2038 1.6558, 0.116 0.1885 1.6558, 0.118 0.1688 1.6558, 0.1177 0.1633 1.6558, 0.1142 0.1426 1.6558, 0.1061 0.1247 1.6558, 0.0927 0.1073 1.6558, 0.0695 0.0885 1.6558, 0.2028 -0.1673 1.6558, 0.1777 -0.1913 1.6558, 0.1309 -0.2225 1.6558, 0.0809 -0.2406 1.6558, 0.0219 -0.2473 1.6558, -0.0172 -0.2435 1.6558, -0.0459 -0.2342 1.6558, -0.0688 -0.2208 1.6558, -0.0692 -0.2205 1.6558, -0.0858 -0.2048 1.6558, -0.0979 -0.1867 1.6558, -0.1057 -0.165 1.6558, -0.1089 -0.1366 1.6558, -0.1085 -0.1252 1.6558, -0.1031 -0.0942 1.6558, -0.0917 -0.0681 1.6558, -0.075 -0.0462 1.6558, -0.0393 -0.0185 1.6558, 0.0091 0.0049 1.6558, 0.0463 -0.0109 1.6558, 0.1022 -0.0464 1.6558, 0.1497 -0.0947 1.6558
            ]
        }
        coordIndex [
            0,1,2,-1,2,1,3,-1,4,5,6,-1,4,6,7,-1,7,6,8,-1,7,8,9,-1,9,8,3,-1,9,3,1,-1,10,11,12,-1,10,12,13,-1,13,12,14,-1,13,14,15,-1,15,14,16,-1,15,16,17,-1,17,16,18,-1,17,18,19,-1,19,18,20,-1,19,20,21,-1,21,20,22,-1,21,22,23,-1,23,22,5,-1,23,5,4,-1,24,25,26,-1,24,26,27,-1,27,26,28,-1,27,28,29,-1,29,28,30,-1,29,30,31,-1,31,30,32,-1,31,32,33,-1,33,32,34,-1,33,34,35,-1,35,34,36,-1,35,36,37,-1,37,36,38,-1,37,38,39,-1,39,38,11,-1,39,11,10,-1,40,41,42,-1,40,42,43,-1,43,42,25,-1,43,25,24,-1,40,44,41,-1,41,44,45,-1,46,47,48,-1,46,48,49,-1,49,48,50,-1,49,50,51,-1,51,50,45,-1,51,45,44,-1,52,53,54,-1,52,54,55,-1,55,54,56,-1,55,56,57,-1,57,56,58,-1,57,58,59,-1,59,58,60,-1,59,60,61,-1,61,60,62,-1,61,62,63,-1,63,62,64,-1,63,64,65,-1,65,64,47,-1,65,47,46,-1,66,67,68,-1,66,68,69,-1,69,68,70,-1,69,70,71,-1,71,70,72,-1,71,72,73,-1,73,72,74,-1,73,74,75,-1,75,74,76,-1,75,76,77,-1,77,76,78,-1,77,78,79,-1,79,78,53,-1,79,53,52,-1,0,2,80,-1,0,80,81,-1,81,80,82,-1,81,82,83,-1,83,82,67,-1,83,67,66,-1,44,40,51,-1,51,40,43,-1,51,43,49,-1,49,43,24,-1,49,24,46,-1,46,24,27,-1,46,27,65,-1,65,27,29,-1,65,29,63,-1,63,29,31,-1,63,31,61,-1,61,31,33,-1,61,33,59,-1,59,33,35,-1,59,35,57,-1,57,35,37,-1,57,37,55,-1,55,37,39,-1,55,39,52,-1,52,39,10,-1,52,10,79,-1,79,10,13,-1,79,13,77,-1,77,13,15,-1,77,15,75,-1,75,15,17,-1,75,17,73,-1,73,17,19,-1,73,19,71,-1,71,19,21,-1,71,21,69,-1,69,21,23,-1,69,23,66,-1,23,4,66,-1,66,4,7,-1,66,7,83,-1,83,7,9,-1,83,9,81,-1,81,9,1,-1,81,1,0,-1,84,85,86,-1,86,85,87,-1,85,88,87,-1,87,88,89,-1,88,90,89,-1,89,90,91,-1,92,93,94,-1,92,94,95,-1,95,94,91,-1,95,91,90,-1,92,96,93,-1,93,96,97,-1,96,98,97,-1,97,98,99,-1,98,100,99,-1,99,100,101,-1,100,102,101,-1,101,102,103,-1,102,104,103,-1,103,104,105,-1,104,106,105,-1,105,106,107,-1,106,108,107,-1,107,108,109,-1,110,111,112,-1,110,112,113,-1,113,112,109,-1,113,109,108,-1,110,114,111,-1,111,114,115,-1,114,116,115,-1,115,116,117,-1,116,84,117,-1,117,84,86,-1,108,106,84,-1,104,102,106,-1,106,102,100,-1,100,98,96,-1,108,84,113,-1,100,96,106,-1,106,96,92,-1,106,92,84,-1,88,85,90,-1,90,85,84,-1,90,84,95,-1,95,84,92,-1,116,114,84,-1,84,114,110,-1,84,110,113,-1,118,119,120,-1,118,120,121,-1,121,120,122,-1,121,122,123,-1,123,122,124,-1,123,124,125,-1,125,124,126,-1,125,126,127,-1,127,126,128,-1,127,128,129,-1,130,131,132,-1,130,132,133,-1,133,132,134,-1,133,134,135,-1,135,134,136,-1,135,136,137,-1,137,136,119,-1,137,119,118,-1,138,139,140,-1,138,140,141,-1,141,140,142,-1,141,142,143,-1,143,142,144,-1,143,144,145,-1,145,144,146,-1,145,146,147,-1,147,146,148,-1,147,148,149,-1,149,148,150,-1,149,150,151,-1,151,150,131,-1,151,131,130,-1,152,153,154,-1,152,154,155,-1,155,154,156,-1,155,156,157,-1,157,156,158,-1,157,158,159,-1,159,158,160,-1,159,160,161,-1,161,160,162,-1,161,162,163,-1,163,162,139,-1,163,139,138,-1,164,165,166,-1,164,166,167,-1,167,166,168,-1,167,168,169,-1,169,168,170,-1,169,170,171,-1,171,170,153,-1,171,153,152,-1,172,173,174,-1,172,174,175,-1,175,174,176,-1,175,176,177,-1,177,176,178,-1,177,178,179,-1,179,178,180,-1,179,180,181,-1,181,180,182,-1,181,182,183,-1,183,182,184,-1,183,184,185,-1,185,184,165,-1,185,165,164,-1,186,187,188,-1,186,188,189,-1,189,188,190,-1,189,190,191,-1,191,190,192,-1,191,192,193,-1,193,192,194,-1,193,194,195,-1,195,194,196,-1,195,196,197,-1,197,196,198,-1,197,198,199,-1,199,198,173,-1,199,173,172,-1,200,201,202,-1,200,202,203,-1,203,202,204,-1,203,204,205,-1,205,204,206,-1,205,206,207,-1,207,206,208,-1,207,208,209,-1,209,208,210,-1,209,210,211,-1,211,210,187,-1,211,187,186,-1,212,213,214,-1,212,214,215,-1,215,214,216,-1,215,216,217,-1,217,216,201,-1,217,201,200,-1,218,219,220,-1,218,220,221,-1,221,220,222,-1,221,222,223,-1,223,222,213,-1,223,213,212,-1,224,225,226,-1,224,226,227,-1,227,226,219,-1,227,219,218,-1,224,228,225,-1,225,228,229,-1,230,231,232,-1,230,232,233,-1,233,232,229,-1,233,229,228,-1,234,235,236,-1,234,236,237,-1,237,236,238,-1,237,238,239,-1,239,238,240,-1,239,240,241,-1,241,240,231,-1,241,231,230,-1,242,243,244,-1,242,244,245,-1,245,244,246,-1,245,246,247,-1,247,246,248,-1,247,248,249,-1,249,248,235,-1,249,235,234,-1,250,251,252,-1,250,252,253,-1,253,252,254,-1,253,254,255,-1,255,254,243,-1,255,243,242,-1,250,256,251,-1,251,256,257,-1,129,128,258,-1,129,258,259,-1,259,258,257,-1,259,257,256,-1,118,121,212,-1,250,253,256,-1,256,253,255,-1,256,255,259,-1,259,255,242,-1,260,261,200,-1,200,261,262,-1,263,264,171,-1,171,264,265,-1,171,265,169,-1,169,265,266,-1,169,266,167,-1,267,268,151,-1,151,268,149,-1,149,268,269,-1,149,269,147,-1,270,152,155,-1,270,155,271,-1,228,224,233,-1,233,224,227,-1,233,227,230,-1,230,227,218,-1,230,218,241,-1,241,218,221,-1,241,221,239,-1,239,221,223,-1,239,223,237,-1,237,223,212,-1,237,212,234,-1,234,212,121,-1,234,121,249,-1,249,121,123,-1,249,123,247,-1,247,123,125,-1,247,125,245,-1,245,125,127,-1,245,127,242,-1,242,127,129,-1,242,129,259,-1,171,152,263,-1,263,152,270,-1,263,270,272,-1,272,270,273,-1,272,273,274,-1,155,157,271,-1,271,157,159,-1,271,159,275,-1,275,159,161,-1,275,161,276,-1,276,161,163,-1,276,163,277,-1,277,163,138,-1,277,138,278,-1,278,138,141,-1,278,141,279,-1,279,141,143,-1,279,143,280,-1,280,143,145,-1,280,145,281,-1,281,145,147,-1,281,147,282,-1,282,147,269,-1,151,130,267,-1,267,130,133,-1,267,133,283,-1,283,133,135,-1,283,135,284,-1,284,135,137,-1,284,137,285,-1,285,137,118,-1,285,118,286,-1,286,118,212,-1,286,212,287,-1,287,212,215,-1,287,215,288,-1,288,215,217,-1,288,217,289,-1,289,217,200,-1,289,200,274,-1,274,200,262,-1,274,262,272,-1,167,266,164,-1,164,266,290,-1,164,290,185,-1,185,290,291,-1,185,291,183,-1,183,291,292,-1,183,292,181,-1,181,292,293,-1,181,293,179,-1,179,293,294,-1,179,294,177,-1,177,294,295,-1,177,295,175,-1,175,295,296,-1,175,296,172,-1,172,296,297,-1,172,297,199,-1,297,298,199,-1,199,298,299,-1,199,299,197,-1,197,299,300,-1,197,300,195,-1,195,300,301,-1,195,301,193,-1,193,301,302,-1,205,207,303,-1,303,207,209,-1,303,209,304,-1,304,209,211,-1,304,211,305,-1,305,211,186,-1,305,186,306,-1,306,186,189,-1,306,189,302,-1,302,189,191,-1,302,191,193,-1,260,200,303,-1,303,200,203,-1,303,203,205,-1,272,307,308,-1,272,308,263,-1,263,308,309,-1,263,309,264,-1,264,309,310,-1,264,310,265,-1,265,310,311,-1,265,311,266,-1,266,311,312,-1,266,312,290,-1,290,312,313,-1,290,313,291,-1,291,313,314,-1,291,314,292,-1,292,314,315,-1,292,315,293,-1,293,315,316,-1,293,316,294,-1,294,316,317,-1,294,317,295,-1,295,317,318,-1,295,318,296,-1,296,318,319,-1,296,319,297,-1,297,319,320,-1,297,320,298,-1,298,320,321,-1,298,321,299,-1,299,321,322,-1,299,322,300,-1,300,322,323,-1,300,323,301,-1,301,323,324,-1,301,324,302,-1,302,324,325,-1,302,325,306,-1,306,325,326,-1,306,326,305,-1,305,326,327,-1,305,327,304,-1,304,327,328,-1,304,328,303,-1,303,328,329,-1,303,329,260,-1,260,329,330,-1,260,330,261,-1,261,330,331,-1,261,331,262,-1,262,331,307,-1,262,307,272,-1,286,332,333,-1,286,333,285,-1,285,333,334,-1,285,334,284,-1,284,334,335,-1,284,335,283,-1,283,335,336,-1,283,336,267,-1,267,336,337,-1,267,337,268,-1,268,337,338,-1,268,338,269,-1,269,338,339,-1,269,339,282,-1,282,339,340,-1,282,340,281,-1,281,340,341,-1,281,341,280,-1,280,341,342,-1,280,342,279,-1,279,342,343,-1,279,343,278,-1,278,343,344,-1,278,344,277,-1,277,344,345,-1,277,345,276,-1,276,345,346,-1,276,346,275,-1,275,346,347,-1,275,347,271,-1,271,347,348,-1,271,348,270,-1,270,348,349,-1,270,349,273,-1,273,349,350,-1,273,350,274,-1,274,350,351,-1,274,351,289,-1,289,351,352,-1,289,352,288,-1,288,352,353,-1,288,353,287,-1,287,353,332,-1,287,332,286,-1,
        ]
    }
}
Shape{
    appearance Appearance {
        material  Material 	{
            diffuseColor 0.7529411764705882 0.7529411764705882 0.7529411764705882
            specularColor 0.3764705882352941 0.3764705882352941 0.3764705882352941
            ambientIntensity 0.7529
            transparency 0.0
            shininess 0.5
        }
    }
    geometry IndexedFaceSet {
        ccw TRUE
        solid FALSE
        coord DEF co Coordinate {
            point [
                0.118 0.1688 1.6558, -0.0343 0.1818 1.6558, 0.1177 0.1633 1.6558, -0.0357 0.165 1.6558, 0.0296 0.0686 1.6558, 0.0695 0.0885 1.6558, 0.0074 0.0829 1.6558, 0.0927 0.1073 1.6558, 0.1061 0.1247 1.6558, 0.1142 0.1426 1.6558, -0.0118 0.1008 1.6558, -0.0326 0.1398 1.6558, -0.0248 0.1195 1.6558, 0.116 0.1885 1.6558, 0.1107 0.2038 1.6558, 0.1031 0.2161 1.6558, 0.092 0.2272 1.6558, 0.0782 0.2358 1.6558, 0.0622 0.2413 1.6558, 0.0449 0.243 1.6558, 0.0229 0.2408 1.6558, 0.0061 0.2353 1.6558, -0.0076 0.227 1.6558, -0.0203 0.2142 1.6558, -0.0293 0.1987 1.6558, -0.0692 -0.2205 1.6558, -0.0688 -0.2208 1.6558, 0.0463 -0.0109 1.6558, -0.0459 -0.2342 1.6558, 0.0091 0.0049 1.6558, -0.0393 -0.0185 1.6558, -0.0172 -0.2435 1.6558, 0.0219 -0.2473 1.6558, 0.1497 -0.0947 1.6558, 0.0809 -0.2406 1.6558, 0.1022 -0.0464 1.6558, -0.1031 -0.0942 1.6558, -0.1085 -0.1252 1.6558, -0.1089 -0.1366 1.6558, -0.1057 -0.165 1.6558, 0.1309 -0.2225 1.6558, 0.1777 -0.1913 1.6558, 0.2028 -0.1673 1.6558, -0.075 -0.0462 1.6558, -0.0917 -0.0681 1.6558, -0.0979 -0.1867 1.6558, -0.0858 -0.2048 1.6558, -1.495 0.6913 1.4958, -1.495 0.6913 1.6558, -1.495 0.7113 1.4958, -1.495 0.7713 1.6558, -1.495 0.7972 1.6523, -1.495 0.8713 0.1158, -1.495 0.7113 0.1158, -1.495 0.8713 1.5558, -1.495 0.8679 1.5816, -1.495 0.8579 1.6058, -1.495 0.8213 1.6424, -1.495 0.842 1.6265, -1.595 0.6913 1.6558, -1.535 0.6913 1.4958, -1.535 0.6913 0.1158, -1.695 0.6913 0.1158, -1.695 0.6913 1.5558, -1.6657 0.6913 1.6265, -1.645 0.6913 1.6424, -1.6209 0.6913 1.6523, -1.6916 0.6913 1.5816, -1.6816 0.6913 1.6058, 1.495 0.6913 1.6558, 1.495 0.6913 1.4958, 1.495 0.7713 1.6558, 1.495 0.7113 1.4958, 1.495 0.7113 0.1158, 1.495 0.8713 0.1158, 1.495 0.8713 1.5558, 1.495 0.842 1.6265, 1.495 0.8213 1.6424, 1.495 0.7972 1.6523, 1.495 0.8679 1.5816, 1.495 0.8579 1.6058, 1.535 0.6913 1.4958, 1.6657 0.6913 1.6265, 1.6816 0.6913 1.6058, 1.595 0.6913 1.6558, 1.695 0.6913 0.1158, 1.535 0.6913 0.1158, 1.695 0.6913 1.5558, 1.6916 0.6913 1.5816, 1.6209 0.6913 1.6523, 1.645 0.6913 1.6424, -1.495 -0.6987 1.4958, -1.495 -0.8294 1.6265, -1.495 -0.8087 1.6424, -1.495 -0.6987 0.1158, -1.495 -0.8587 0.1158, -1.495 -0.8587 1.5558, -1.495 -0.6787 1.6558, -1.495 -0.6787 1.4958, -1.495 -0.7587 1.6558, -1.495 -0.7846 1.6523, -1.495 -0.8553 1.5816, -1.495 -0.8453 1.6058, -1.535 -0.6787 1.4958, -1.595 -0.6787 1.6558, -1.6209 -0.6787 1.6523, -1.695 -0.6787 0.1158, -1.535 -0.6787 0.1158, -1.695 -0.6787 1.5558, -1.6916 -0.6787 1.5816, -1.6816 -0.6787 1.6058, -1.645 -0.6787 1.6424, -1.6657 -0.6787 1.6265, 1.495 -0.6987 1.4958, 1.495 -0.8294 1.6265, 1.495 -0.8453 1.6058, 1.495 -0.6787 1.4958, 1.495 -0.6787 1.6558, 1.495 -0.7587 1.6558, 1.495 -0.8587 0.1158, 1.495 -0.6987 0.1158, 1.495 -0.8587 1.5558, 1.495 -0.8553 1.5816, 1.495 -0.7846 1.6523, 1.495 -0.8087 1.6424, 1.535 -0.6787 1.4958, 1.6657 -0.6787 1.6265, 1.645 -0.6787 1.6424, 1.535 -0.6787 0.1158, 1.695 -0.6787 0.1158, 1.695 -0.6787 1.5558, 1.595 -0.6787 1.6558, 1.6209 -0.6787 1.6523, 1.6916 -0.6787 1.5816, 1.6816 -0.6787 1.6058, -1.535 -0.1914 -0.5233, -1.535 -0.1138 0.1158, -1.695 -0.1914 -0.5233, -1.695 -0.1138 0.1158, -1.695 -0.1946 -0.6234, -1.535 -0.1946 -0.6234, -1.695 -0.1803 -0.7226, -1.535 -0.1803 -0.7226, -1.695 -0.1488 -0.8177, -1.535 -0.1488 -0.8177, -1.695 -0.1012 -0.9058, -1.535 -0.1012 -0.9058, -1.695 -0.0388 -0.9842, -1.535 -0.0388 -0.9842, -1.535 0.0514 -0.9842, -1.695 0.0514 -0.9842, -1.695 0.1138 -0.9058, -1.535 0.1138 -0.9058, -1.695 0.1614 -0.8177, -1.535 0.1614 -0.8177, -1.695 0.1929 -0.7226, -1.535 0.1929 -0.7226, -1.695 0.2072 -0.6234, -1.535 0.2072 -0.6234, -1.695 0.204 -0.5233, -1.535 0.204 -0.5233, -1.535 0.1264 0.1158, -1.695 0.1264 0.1158, 1.535 0.204 -0.5233, 1.535 0.1264 0.1158, 1.695 0.204 -0.5233, 1.695 0.1264 0.1158, 1.695 0.2072 -0.6234, 1.535 0.2072 -0.6234, 1.695 0.1929 -0.7226, 1.535 0.1929 -0.7226, 1.695 0.1614 -0.8177, 1.535 0.1614 -0.8177, 1.695 0.1138 -0.9058, 1.535 0.1138 -0.9058, 1.695 0.0514 -0.9842, 1.535 0.0514 -0.9842, 1.535 -0.0388 -0.9842, 1.695 -0.0388 -0.9842, 1.695 -0.1012 -0.9058, 1.535 -0.1012 -0.9058, 1.695 -0.1488 -0.8177, 1.535 -0.1488 -0.8177, 1.695 -0.1803 -0.7226, 1.535 -0.1803 -0.7226, 1.695 -0.1946 -0.6234, 1.535 -0.1946 -0.6234, 1.695 -0.1914 -0.5233, 1.535 -0.1914 -0.5233, 1.535 -0.1138 0.1158, 1.695 -0.1138 0.1158, 0.1 0.0563 -0.8042, 0.1 -0.0437 -0.8042, 0.0966 -0.0437 -0.8301, 0.0966 0.0563 -0.8301, 0.0866 -0.0437 -0.8542, 0.0866 0.0563 -0.8542, 0.0707 -0.0437 -0.875, 0.0707 0.0563 -0.875, 0.05 -0.0437 -0.8909, 0.05 0.0563 -0.8909, 0.0259 -0.0437 -0.9008, 0.0259 0.0563 -0.9008, -0.0 -0.0437 -0.9042, -0.0 0.0563 -0.9042, -0.1 -0.0437 -0.8042, -0.1 0.0563 -0.8042, -0.0966 0.0563 -0.8301, -0.0966 -0.0437 -0.8301, -0.0866 0.0563 -0.8542, -0.0866 -0.0437 -0.8542, -0.0707 0.0563 -0.875, -0.0707 -0.0437 -0.875, -0.05 0.0563 -0.8909, -0.05 -0.0437 -0.8909, -0.0259 0.0563 -0.9008, -0.0259 -0.0437 -0.9008, -0.89 -0.0437 -0.8042, -0.89 -0.0437 0.1958, -0.89 0.0563 -0.8042, -0.89 0.0563 0.1958, -0.69 0.0563 0.1958, -0.69 0.0563 -0.8042, -0.8866 0.0563 -0.8301, -0.6934 0.0563 -0.8301, -0.7034 0.0563 -0.8542, -0.7193 0.0563 -0.875, -0.74 0.0563 -0.8909, -0.7641 0.0563 -0.9008, -0.79 0.0563 -0.9042, -0.8159 0.0563 -0.9008, -0.84 0.0563 -0.8909, -0.8607 0.0563 -0.875, -0.8766 0.0563 -0.8542, -0.69 -0.0437 -0.8042, -0.69 -0.0437 0.1958, -0.7034 -0.0437 -0.8542, -0.8866 -0.0437 -0.8301, -0.7193 -0.0437 -0.875, -0.74 -0.0437 -0.8909, -0.6934 -0.0437 -0.8301, -0.8766 -0.0437 -0.8542, -0.8607 -0.0437 -0.875, -0.84 -0.0437 -0.8909, -0.8159 -0.0437 -0.9008, -0.79 -0.0437 -0.9042, -0.7641 -0.0437 -0.9008, 0.69 -0.0437 -0.8042, 0.69 -0.0437 0.1958, 0.69 0.0563 -0.8042, 0.69 0.0563 0.1958, 0.89 0.0563 0.1958, 0.89 0.0563 -0.8042, 0.8866 0.0563 -0.8301, 0.8766 0.0563 -0.8542, 0.8607 0.0563 -0.875, 0.84 0.0563 -0.8909, 0.8159 0.0563 -0.9008, 0.7193 0.0563 -0.875, 0.7034 0.0563 -0.8542, 0.74 0.0563 -0.8909, 0.6934 0.0563 -0.8301, 0.79 0.0563 -0.9042, 0.7641 0.0563 -0.9008, 0.89 -0.0437 -0.8042, 0.89 -0.0437 0.1958, 0.6934 -0.0437 -0.8301, 0.7034 -0.0437 -0.8542, 0.7193 -0.0437 -0.875, 0.74 -0.0437 -0.8909, 0.7641 -0.0437 -0.9008, 0.8607 -0.0437 -0.875, 0.8766 -0.0437 -0.8542, 0.84 -0.0437 -0.8909, 0.8866 -0.0437 -0.8301, 0.79 -0.0437 -0.9042, 0.8159 -0.0437 -0.9008, -1.025 -0.6987 1.3108, 1.025 -0.6987 1.3108, -1.025 -0.8587 1.3108, 1.025 -0.8587 1.3108, 1.025 -0.6987 0.5208, 1.025 -0.8587 0.5208, -1.025 -0.6987 0.5208, -1.025 -0.8587 0.5208, -1.1 -0.6987 0.1158, -1.1 -0.6987 0.3158, -1.1 -0.8587 0.1158, -1.1 -0.8587 0.3158, 1.1 -0.6987 0.3158, 1.1 -0.8587 0.3158, 1.1 -0.6987 0.1158, 1.1 -0.8587 0.1158
            ]
        }
        coordIndex [
            0,1,2,-1,2,1,3,-1,4,5,6,-1,6,5,7,-1,6,7,8,-1,8,9,6,-1,6,9,2,-1,6,2,10,-1,3,11,2,-1,2,11,12,-1,2,12,10,-1,13,14,0,-1,0,14,15,-1,0,15,16,-1,16,17,0,-1,0,17,18,-1,0,18,19,-1,19,20,0,-1,0,20,21,-1,0,21,22,-1,22,23,0,-1,0,23,24,-1,0,24,1,-1,25,26,27,-1,27,26,28,-1,27,29,30,-1,31,32,33,-1,33,32,34,-1,31,33,28,-1,28,33,35,-1,28,35,27,-1,36,37,27,-1,27,37,38,-1,27,38,39,-1,34,40,33,-1,33,40,41,-1,33,41,42,-1,30,43,27,-1,27,43,44,-1,27,44,36,-1,39,45,27,-1,27,45,46,-1,27,46,25,-1,47,48,49,-1,49,48,50,-1,49,50,51,-1,52,53,54,-1,54,53,49,-1,54,49,55,-1,55,49,56,-1,51,57,49,-1,49,57,58,-1,49,58,56,-1,48,47,59,-1,59,47,60,-1,61,62,60,-1,60,62,63,-1,64,65,60,-1,60,65,66,-1,60,66,59,-1,63,67,60,-1,60,67,68,-1,60,68,64,-1,69,70,71,-1,71,70,72,-1,73,74,72,-1,72,74,75,-1,76,77,72,-1,72,77,78,-1,72,78,71,-1,75,79,72,-1,72,79,80,-1,72,80,76,-1,81,82,83,-1,70,69,81,-1,81,69,84,-1,85,86,87,-1,87,86,81,-1,87,81,88,-1,88,81,83,-1,84,89,81,-1,81,89,90,-1,81,90,82,-1,91,92,93,-1,94,95,91,-1,91,95,96,-1,97,98,99,-1,99,98,91,-1,99,91,100,-1,100,91,93,-1,96,101,91,-1,91,101,102,-1,91,102,92,-1,98,97,103,-1,103,97,104,-1,103,104,105,-1,106,107,108,-1,108,107,103,-1,108,103,109,-1,109,103,110,-1,105,111,103,-1,103,111,112,-1,103,112,110,-1,113,114,115,-1,116,117,113,-1,113,117,118,-1,119,120,121,-1,121,120,113,-1,121,113,122,-1,122,113,115,-1,118,123,113,-1,113,123,124,-1,113,124,114,-1,125,126,127,-1,128,129,125,-1,125,129,130,-1,117,116,131,-1,131,116,125,-1,131,125,132,-1,132,125,127,-1,130,133,125,-1,125,133,134,-1,125,134,126,-1,135,136,137,-1,137,136,138,-1,135,137,139,-1,135,139,140,-1,140,139,141,-1,140,141,142,-1,142,141,143,-1,142,143,144,-1,144,143,145,-1,144,145,146,-1,146,145,147,-1,146,147,148,-1,149,148,150,-1,150,148,147,-1,149,150,151,-1,149,151,152,-1,152,151,153,-1,152,153,154,-1,154,153,155,-1,154,155,156,-1,156,155,157,-1,156,157,158,-1,158,157,159,-1,158,159,160,-1,161,160,162,-1,162,160,159,-1,163,164,165,-1,165,164,166,-1,163,165,167,-1,163,167,168,-1,168,167,169,-1,168,169,170,-1,170,169,171,-1,170,171,172,-1,172,171,173,-1,172,173,174,-1,174,173,175,-1,174,175,176,-1,177,176,178,-1,178,176,175,-1,177,178,179,-1,177,179,180,-1,180,179,181,-1,180,181,182,-1,182,181,183,-1,182,183,184,-1,184,183,185,-1,184,185,186,-1,186,185,187,-1,186,187,188,-1,189,188,190,-1,190,188,187,-1,191,192,193,-1,191,193,194,-1,194,193,195,-1,194,195,196,-1,196,195,197,-1,196,197,198,-1,198,197,199,-1,198,199,200,-1,200,199,201,-1,200,201,202,-1,202,201,203,-1,202,203,204,-1,205,206,207,-1,205,207,208,-1,208,207,209,-1,208,209,210,-1,210,209,211,-1,210,211,212,-1,212,211,213,-1,212,213,214,-1,214,213,215,-1,214,215,216,-1,216,215,204,-1,216,204,203,-1,217,218,219,-1,219,218,220,-1,220,221,219,-1,219,221,222,-1,219,222,223,-1,223,222,224,-1,224,225,223,-1,223,225,226,-1,223,226,227,-1,227,228,223,-1,223,228,229,-1,223,229,230,-1,230,231,223,-1,223,231,232,-1,223,232,233,-1,222,221,234,-1,234,221,235,-1,234,235,218,-1,236,237,238,-1,238,237,239,-1,218,217,234,-1,234,217,237,-1,234,237,240,-1,240,237,236,-1,241,242,237,-1,237,242,243,-1,237,243,244,-1,244,245,237,-1,237,245,246,-1,237,246,239,-1,222,234,240,-1,222,240,224,-1,224,240,236,-1,224,236,225,-1,225,236,238,-1,225,238,226,-1,226,238,239,-1,226,239,227,-1,227,239,246,-1,227,246,228,-1,228,246,245,-1,228,245,229,-1,217,219,223,-1,217,223,237,-1,237,223,233,-1,237,233,241,-1,241,233,232,-1,241,232,242,-1,242,232,231,-1,242,231,243,-1,243,231,230,-1,243,230,244,-1,244,230,229,-1,244,229,245,-1,247,248,249,-1,249,248,250,-1,249,250,251,-1,251,252,249,-1,249,252,253,-1,249,253,254,-1,254,255,249,-1,249,255,256,-1,249,256,257,-1,258,259,260,-1,260,259,261,-1,260,261,249,-1,257,262,249,-1,249,262,263,-1,249,263,260,-1,252,251,264,-1,264,251,265,-1,264,265,248,-1,248,247,264,-1,264,247,266,-1,264,266,267,-1,267,268,264,-1,264,268,269,-1,264,269,270,-1,271,272,273,-1,273,272,274,-1,273,274,264,-1,270,275,264,-1,264,275,276,-1,264,276,273,-1,252,264,274,-1,252,274,253,-1,253,274,272,-1,253,272,254,-1,254,272,271,-1,254,271,255,-1,255,271,273,-1,255,273,256,-1,256,273,276,-1,256,276,257,-1,257,276,275,-1,257,275,262,-1,247,249,261,-1,247,261,266,-1,266,261,259,-1,266,259,267,-1,267,259,258,-1,267,258,268,-1,268,258,260,-1,268,260,269,-1,269,260,263,-1,269,263,270,-1,270,263,262,-1,270,262,275,-1,277,278,279,-1,279,278,280,-1,278,281,280,-1,280,281,282,-1,281,283,282,-1,282,283,284,-1,285,286,287,-1,287,286,288,-1,286,289,288,-1,288,289,290,-1,289,291,290,-1,290,291,292,-1,
        ]
    }
}
Shape{
    appearance Appearance {
        material  Material 	{
            diffuseColor 0.2235294117647059 0.2235294117647059 0.2235294117647059
            specularColor 0.19607843137254902 0.19607843137254902 0.19607843137254902
            ambientIntensity 0.2235
            transparency 0.0
            shininess 0.5
        }
    }
    geometry IndexedFaceSet {
        ccw TRUE
        solid FALSE
        coord DEF co Coordinate {
            point [
                -1.025 -0.6987 1.3008, -1.025 -0.6687 1.3008, -1.025 -0.6987 0.5308, -1.025 -0.6687 0.5308, -1.025 -1.6587 0.5308, -1.025 -1.6587 1.3008, -1.025 -0.8587 0.5308, -1.025 -0.8587 1.3008, -0.235 -1.6587 0.5308, -0.381 -1.6587 0.5308, -0.235 -0.6687 0.5308, -0.5842 -1.4587 0.5308, -0.781 -1.6587 0.5308, -0.235 -1.6587 1.3008, -0.235 -0.6687 1.3008, -0.5842 -1.4587 1.3008, -0.381 -1.6587 1.3008, -0.781 -1.6587 1.3008
            ]
        }
        coordIndex [
            0,1,2,-1,2,1,3,-1,4,5,6,-1,6,5,7,-1,8,9,10,-1,10,9,11,-1,12,4,11,-1,11,4,6,-1,11,6,10,-1,10,6,2,-1,10,2,3,-1,13,8,14,-1,14,8,10,-1,15,16,13,-1,1,0,14,-1,14,0,7,-1,5,17,7,-1,7,17,15,-1,7,15,14,-1,14,15,13,-1,5,4,17,-1,17,4,12,-1,16,15,9,-1,9,15,11,-1,15,17,11,-1,11,17,12,-1,
        ]
    }
}
Shape{
    appearance Appearance {
        material  Material 	{
            diffuseColor 0.7529411764705882 0.7529411764705882 0.7529411764705882
            specularColor 0.3764705882352941 0.3764705882352941 0.3764705882352941
            ambientIntensity 0.7529
            transparency 0.0
            shininess 0.5
        }
    }
    geometry IndexedFaceSet {
        ccw TRUE
        solid FALSE
        coord DEF co Coordinate {
            point [
                0.3893 -0.4645 0.2058, 0.3893 -0.4974 0.2058, 0.3893 -0.4645 0.1958, 0.3893 -0.4974 0.1958, 0.543 -0.4974 0.2058, 0.543 -0.4974 0.1958, 0.543 -0.1974 0.2058, 0.543 -0.1974 0.1958, 0.5027 -0.1974 0.2058, 0.5027 -0.1974 0.1958, 0.5027 -0.4645 0.2058, 0.5027 -0.4645 0.1958, -0.5546 -0.1974 0.2058, -0.6717 -0.4974 0.2058, -0.5546 -0.1974 0.1958, -0.6717 -0.4974 0.1958, -0.6278 -0.4974 0.2058, -0.6278 -0.4974 0.1958, -0.5974 -0.4133 0.2058, -0.5974 -0.4133 0.1958, -0.4735 -0.4133 0.2058, -0.4735 -0.4133 0.1958, -0.4448 -0.4974 0.2058, -0.4448 -0.4974 0.1958, -0.4009 -0.4974 0.2058, -0.4009 -0.4974 0.1958, -0.5144 -0.1974 0.2058, -0.5144 -0.1974 0.1958, -0.4836 -0.3804 0.2058, -0.5839 -0.3804 0.2058, -0.5284 -0.2551 0.2058, -0.5312 -0.2447 0.2058, -0.5332 -0.234 0.2058, -0.5341 -0.234 0.2058, -0.5361 -0.2446 0.2058, -0.5388 -0.2551 0.2058, -0.4836 -0.3804 0.1958, -0.5839 -0.3804 0.1958, -0.5284 -0.2551 0.1958, -0.5312 -0.2447 0.1958, -0.5332 -0.234 0.1958, -0.5341 -0.234 0.1958, -0.5361 -0.2446 0.1958, -0.5388 -0.2551 0.1958, -0.2191 -0.4974 0.2058, -0.1375 -0.4974 0.2058, -0.2191 -0.4974 0.1958, -0.1375 -0.4974 0.1958, -0.1375 -0.1974 0.2058, -0.1375 -0.1974 0.1958, -0.2222 -0.1974 0.2058, -0.2222 -0.1974 0.1958, -0.379 -0.3437 0.2058, -0.379 -0.3437 0.1958, -0.3768 -0.3154 0.1958, -0.3768 -0.3154 0.2058, -0.3688 -0.2859 0.1958, -0.3688 -0.2859 0.2058, -0.3548 -0.2601 0.1958, -0.3548 -0.2601 0.2058, -0.3336 -0.2366 0.1958, -0.3336 -0.2366 0.2058, -0.3333 -0.2363 0.1958, -0.3333 -0.2363 0.2058, -0.3006 -0.2144 0.1958, -0.3006 -0.2144 0.2058, -0.2655 -0.2021 0.1958, -0.2655 -0.2021 0.2058, -0.2562 -0.4942 0.1958, -0.2562 -0.4942 0.2058, -0.2908 -0.4839 0.1958, -0.2908 -0.4839 0.2058, -0.3221 -0.4657 0.1958, -0.3221 -0.4657 0.2058, -0.3468 -0.442 0.1958, -0.3468 -0.442 0.2058, -0.364 -0.4152 0.1958, -0.364 -0.4152 0.2058, -0.3748 -0.3838 0.1958, -0.3748 -0.3838 0.2058, -0.3188 -0.2724 0.2058, -0.3042 -0.257 0.2058, -0.2823 -0.2428 0.2058, -0.2575 -0.2341 0.2058, -0.222 -0.2304 0.2058, -0.1778 -0.2304 0.2058, -0.1778 -0.4645 0.2058, -0.2204 -0.4645 0.2058, -0.252 -0.4616 0.2058, -0.2773 -0.4537 0.2058, -0.2977 -0.4415 0.2058, -0.3145 -0.4249 0.2058, -0.3272 -0.4042 0.2058, -0.336 -0.376 0.2058, -0.3387 -0.3445 0.2058, -0.3362 -0.3147 0.2058, -0.3292 -0.2909 0.2058, -0.222 -0.2304 0.1958, -0.1778 -0.2304 0.1958, -0.2575 -0.2341 0.1958, -0.2823 -0.2428 0.1958, -0.3042 -0.257 0.1958, -0.3188 -0.2724 0.1958, -0.3292 -0.2909 0.1958, -0.3362 -0.3147 0.1958, -0.3387 -0.3445 0.1958, -0.336 -0.376 0.1958, -0.3272 -0.4042 0.1958, -0.3145 -0.4249 0.1958, -0.2977 -0.4415 0.1958, -0.2773 -0.4537 0.1958, -0.252 -0.4616 0.1958, -0.2204 -0.4645 0.1958, -0.1778 -0.4645 0.1958, -0.079 -0.4645 0.2058, -0.079 -0.4974 0.2058, -0.079 -0.4645 0.1958, -0.079 -0.4974 0.1958, 0.082 -0.4974 0.2058, 0.082 -0.4974 0.1958, 0.082 -0.1974 0.2058, 0.082 -0.1974 0.1958, -0.0717 -0.1974 0.2058, -0.0717 -0.1974 0.1958, -0.0717 -0.2304 0.2058, -0.0717 -0.2304 0.1958, 0.0417 -0.2304 0.2058, 0.0417 -0.2304 0.1958, 0.0417 -0.3291 0.2058, 0.0417 -0.3291 0.1958, -0.0644 -0.3291 0.2058, -0.0644 -0.3291 0.1958, -0.0644 -0.3621 0.2058, -0.0644 -0.3621 0.1958, 0.0417 -0.3621 0.2058, 0.0417 -0.3621 0.1958, 0.0417 -0.4645 0.2058, 0.0417 -0.4645 0.1958, 0.1405 -0.449 0.2058, 0.1405 -0.4819 0.2058, 0.1405 -0.449 0.1958, 0.1405 -0.4819 0.1958, 0.1725 -0.495 0.2058, 0.2231 -0.5011 0.2058, 0.2231 -0.5011 0.1958, 0.2149 -0.501 0.1958, 0.2149 -0.501 0.2058, 0.2028 -0.4993 0.1958, 0.1725 -0.495 0.1958, 0.3637 -0.3531 0.2058, 0.3637 -0.3531 0.1958, 0.3608 -0.3878 0.1958, 0.3608 -0.3878 0.2058, 0.3518 -0.4196 0.1958, 0.3518 -0.4196 0.2058, 0.3358 -0.4481 0.1958, 0.3358 -0.4481 0.2058, 0.3132 -0.4718 0.1958, 0.3132 -0.4718 0.2058, 0.2891 -0.4873 0.1958, 0.2891 -0.4873 0.2058, 0.26 -0.4973 0.1958, 0.26 -0.4973 0.2058, 0.2407 -0.4993 0.1958, 0.2111 -0.1938 0.2058, 0.2111 -0.1938 0.1958, 0.2413 -0.1962 0.2058, 0.2335 -0.1956 0.1958, 0.2413 -0.1962 0.1958, 0.2747 -0.206 0.1958, 0.2747 -0.206 0.2058, 0.3032 -0.2224 0.1958, 0.3032 -0.2224 0.2058, 0.3303 -0.2484 0.1958, 0.3303 -0.2484 0.2058, 0.3479 -0.2765 0.1958, 0.3479 -0.2765 0.2058, 0.3594 -0.3104 0.1958, 0.3594 -0.3104 0.2058, 0.1846 -0.1956 0.1958, 0.1752 -0.1963 0.2058, 0.1752 -0.1963 0.1958, 0.1405 -0.2057 0.2058, 0.1405 -0.2057 0.1958, 0.1405 -0.2459 0.2058, 0.1405 -0.2459 0.1958, 0.2108 -0.2267 0.2058, 0.2108 -0.2267 0.1958, 0.1743 -0.2314 0.1958, 0.1743 -0.2314 0.2058, 0.3235 -0.3506 0.2058, 0.3235 -0.3506 0.1958, 0.322 -0.3273 0.1958, 0.322 -0.3273 0.2058, 0.314 -0.2952 0.1958, 0.314 -0.2952 0.2058, 0.3017 -0.272 0.1958, 0.3017 -0.272 0.2058, 0.2835 -0.252 0.1958, 0.2835 -0.252 0.2058, 0.2628 -0.2381 0.1958, 0.2628 -0.2381 0.2058, 0.2403 -0.23 0.1958, 0.2403 -0.23 0.2058, 0.2175 -0.4682 0.2058, 0.2175 -0.4682 0.1958, 0.2455 -0.465 0.1958, 0.2455 -0.465 0.2058, 0.2674 -0.457 0.1958, 0.2674 -0.457 0.2058, 0.2858 -0.4446 0.1958, 0.2858 -0.4446 0.2058, 0.2999 -0.4297 0.1958, 0.2999 -0.4297 0.2058, 0.3123 -0.4089 0.1958, 0.3123 -0.4089 0.2058, 0.3204 -0.3831 0.1958, 0.3204 -0.3831 0.2058, 0.1459 -0.4519 0.1958, 0.1459 -0.4519 0.2058, 0.1777 -0.4638 0.1958, 0.1777 -0.4638 0.2058
            ]
        }
        coordIndex [
            0,1,2,-1,2,1,3,-1,1,4,3,-1,3,4,5,-1,4,6,5,-1,5,6,7,-1,6,8,7,-1,7,8,9,-1,8,10,9,-1,9,10,11,-1,10,0,11,-1,11,0,2,-1,8,6,10,-1,10,6,4,-1,10,4,0,-1,0,4,1,-1,12,13,14,-1,14,13,15,-1,13,16,15,-1,15,16,17,-1,16,18,17,-1,17,18,19,-1,18,20,19,-1,19,20,21,-1,20,22,21,-1,21,22,23,-1,22,24,23,-1,23,24,25,-1,24,26,25,-1,25,26,27,-1,26,12,27,-1,27,12,14,-1,28,20,29,-1,29,20,18,-1,30,26,28,-1,28,26,24,-1,28,24,20,-1,20,24,22,-1,30,31,26,-1,26,31,32,-1,26,32,12,-1,12,32,33,-1,12,33,34,-1,34,35,12,-1,12,35,29,-1,12,29,13,-1,13,29,18,-1,13,18,16,-1,28,29,36,-1,36,29,37,-1,30,28,38,-1,38,28,36,-1,30,38,39,-1,30,39,31,-1,31,39,40,-1,31,40,32,-1,33,32,41,-1,41,32,40,-1,33,41,42,-1,33,42,34,-1,34,42,43,-1,34,43,35,-1,29,35,37,-1,37,35,43,-1,44,45,46,-1,46,45,47,-1,45,48,47,-1,47,48,49,-1,48,50,49,-1,49,50,51,-1,52,53,54,-1,52,54,55,-1,55,54,56,-1,55,56,57,-1,57,56,58,-1,57,58,59,-1,59,58,60,-1,59,60,61,-1,61,60,62,-1,61,62,63,-1,63,62,64,-1,63,64,65,-1,65,64,66,-1,65,66,67,-1,67,66,51,-1,67,51,50,-1,44,46,68,-1,44,68,69,-1,69,68,70,-1,69,70,71,-1,71,70,72,-1,71,72,73,-1,73,72,74,-1,73,74,75,-1,75,74,76,-1,75,76,77,-1,77,76,78,-1,77,78,79,-1,79,78,53,-1,79,53,52,-1,57,59,80,-1,80,59,61,-1,80,61,81,-1,81,61,63,-1,81,63,82,-1,82,63,65,-1,82,65,83,-1,83,65,67,-1,83,67,84,-1,84,67,50,-1,84,50,85,-1,85,50,48,-1,85,48,86,-1,86,48,45,-1,86,45,87,-1,87,45,44,-1,87,44,88,-1,88,44,69,-1,88,69,89,-1,89,69,71,-1,89,71,90,-1,90,71,73,-1,90,73,91,-1,91,73,75,-1,91,75,92,-1,92,75,77,-1,92,77,93,-1,93,77,79,-1,93,79,94,-1,94,79,52,-1,94,52,95,-1,95,52,55,-1,95,55,96,-1,96,55,57,-1,96,57,80,-1,84,85,97,-1,97,85,98,-1,84,97,99,-1,84,99,83,-1,83,99,100,-1,83,100,82,-1,82,100,101,-1,82,101,81,-1,81,101,102,-1,81,102,80,-1,80,102,103,-1,80,103,96,-1,96,103,104,-1,96,104,95,-1,95,104,105,-1,95,105,94,-1,94,105,106,-1,94,106,93,-1,93,106,107,-1,93,107,92,-1,92,107,108,-1,92,108,91,-1,91,108,109,-1,91,109,90,-1,90,109,110,-1,90,110,89,-1,89,110,111,-1,89,111,88,-1,88,111,112,-1,88,112,87,-1,86,87,113,-1,113,87,112,-1,85,86,98,-1,98,86,113,-1,114,115,116,-1,116,115,117,-1,115,118,117,-1,117,118,119,-1,118,120,119,-1,119,120,121,-1,120,122,121,-1,121,122,123,-1,122,124,123,-1,123,124,125,-1,124,126,125,-1,125,126,127,-1,126,128,127,-1,127,128,129,-1,128,130,129,-1,129,130,131,-1,130,132,131,-1,131,132,133,-1,132,134,133,-1,133,134,135,-1,134,136,135,-1,135,136,137,-1,136,114,137,-1,137,114,116,-1,118,115,114,-1,114,136,118,-1,118,136,134,-1,118,134,120,-1,124,122,126,-1,126,122,120,-1,126,120,128,-1,128,120,134,-1,128,134,130,-1,130,134,132,-1,138,139,140,-1,140,139,141,-1,141,139,142,-1,143,144,145,-1,143,145,146,-1,146,145,147,-1,146,147,142,-1,142,147,148,-1,142,148,141,-1,149,150,151,-1,149,151,152,-1,152,151,153,-1,152,153,154,-1,154,153,155,-1,154,155,156,-1,156,155,157,-1,156,157,158,-1,158,157,159,-1,158,159,160,-1,160,159,161,-1,160,161,162,-1,162,161,143,-1,143,161,163,-1,143,163,144,-1,164,165,166,-1,166,165,167,-1,167,168,166,-1,166,168,169,-1,166,169,170,-1,170,169,171,-1,170,171,172,-1,172,171,173,-1,172,173,174,-1,174,173,175,-1,174,175,176,-1,176,175,177,-1,176,177,178,-1,178,177,150,-1,178,150,149,-1,165,164,179,-1,179,164,180,-1,179,180,181,-1,181,180,182,-1,181,182,183,-1,182,184,183,-1,183,184,185,-1,186,187,188,-1,186,188,189,-1,189,188,185,-1,189,185,184,-1,190,191,192,-1,190,192,193,-1,193,192,194,-1,193,194,195,-1,195,194,196,-1,195,196,197,-1,197,196,198,-1,197,198,199,-1,199,198,200,-1,199,200,201,-1,201,200,202,-1,201,202,203,-1,203,202,187,-1,203,187,186,-1,204,205,206,-1,204,206,207,-1,207,206,208,-1,207,208,209,-1,209,208,210,-1,209,210,211,-1,211,210,212,-1,211,212,213,-1,213,212,214,-1,213,214,215,-1,215,214,216,-1,215,216,217,-1,217,216,191,-1,217,191,190,-1,138,140,218,-1,138,218,219,-1,219,218,220,-1,219,220,221,-1,221,220,205,-1,221,205,204,-1,207,143,204,-1,204,143,146,-1,204,146,221,-1,221,146,142,-1,221,142,219,-1,219,142,139,-1,219,139,138,-1,184,182,189,-1,189,182,180,-1,189,180,186,-1,186,180,164,-1,186,164,203,-1,203,164,166,-1,203,166,201,-1,201,166,170,-1,201,170,199,-1,199,170,172,-1,199,172,197,-1,197,172,174,-1,197,174,195,-1,195,174,176,-1,195,176,193,-1,193,176,178,-1,193,178,190,-1,190,178,149,-1,190,149,217,-1,217,149,152,-1,217,152,215,-1,215,152,154,-1,215,154,213,-1,213,154,156,-1,213,156,211,-1,211,156,158,-1,211,158,209,-1,209,158,160,-1,209,160,207,-1,207,160,162,-1,207,162,143,-1,
        ]
    }
}
Shape{
    appearance Appearance {
        material  Material 	{
            diffuseColor 1.0 0.6784313725490196 0.36470588235294116
            specularColor 0.8784313725490196 0.596078431372549 0.3215686274509804
            ambientIntensity 0.7388
            transparency 0.0
            shininess 0.5
        }
    }
    geometry IndexedFaceSet {
        ccw TRUE
        solid FALSE
        coord DEF co Coordinate {
            point [
                -0.4836 -0.3804 0.1958, -0.5839 -0.3804 0.1958, -0.5284 -0.2551 0.1958, -0.5388 -0.2551 0.1958, -0.5312 -0.2447 0.1958, -0.5361 -0.2446 0.1958, -0.5332 -0.234 0.1958, -0.5341 -0.234 0.1958, -0.1778 -0.2304 0.1958, -0.1778 -0.4645 0.1958, -0.222 -0.2304 0.1958, -0.2204 -0.4645 0.1958, -0.252 -0.4616 0.1958, -0.3387 -0.3445 0.1958, -0.3362 -0.3147 0.1958, -0.3292 -0.2909 0.1958, -0.2575 -0.2341 0.1958, -0.2773 -0.4537 0.1958, -0.2977 -0.4415 0.1958, -0.3145 -0.4249 0.1958, -0.3272 -0.4042 0.1958, -0.336 -0.376 0.1958, -0.3188 -0.2724 0.1958, -0.3042 -0.257 0.1958, -0.2823 -0.2428 0.1958
            ]
        }
        coordIndex [
            0,1,2,-1,2,1,3,-1,2,3,4,-1,4,3,5,-1,4,5,6,-1,6,5,7,-1,8,9,10,-1,10,9,11,-1,10,11,12,-1,13,14,10,-1,10,14,15,-1,10,15,16,-1,12,17,10,-1,10,17,18,-1,10,18,19,-1,19,20,10,-1,10,20,21,-1,10,21,13,-1,22,23,15,-1,15,23,24,-1,15,24,16,-1,
        ]
    }
}
Shape{
    appearance Appearance {
        material  Material 	{
            diffuseColor 0.7529411764705882 0.7529411764705882 0.7529411764705882
            specularColor 0.3764705882352941 0.3764705882352941 0.3764705882352941
            ambientIntensity 0.7529
            transparency 0.0
            shininess 0.5
        }
    }
    geometry IndexedFaceSet {
        ccw TRUE
        solid FALSE
        coord DEF co Coordinate {
            point [
                1.395 0.4713 0.1158, 1.395 0.4713 -0.0443, 1.395 0.7113 0.1158, 1.395 0.7713 -0.0443, 1.395 0.7972 -0.0408, 1.395 0.8213 -0.0309, 1.395 0.842 -0.015, 1.395 0.8579 0.0057, 1.395 0.8679 0.0299, 1.395 0.8713 0.0558, 1.395 0.8713 0.1158, 1.195 0.8713 0.1158, 1.195 0.8713 0.0558, 1.195 0.7113 0.1158, 1.195 0.8679 0.0299, 1.195 0.8579 0.0057, 1.195 0.842 -0.015, 1.195 0.8213 -0.0309, 1.195 0.4713 -0.0443, 1.195 0.4713 0.1158, 1.195 0.7713 -0.0443, 1.195 0.7972 -0.0408, 1.1984 0.4454 -0.0443, 1.2084 0.4213 -0.0443, 1.3916 0.4454 -0.0443, 1.3816 0.4213 -0.0443, 1.3209 0.3747 -0.0443, 1.295 0.3713 -0.0443, 1.2691 0.3747 -0.0443, 1.245 0.3847 -0.0443, 1.2243 0.4006 -0.0443, 1.3657 0.4006 -0.0443, 1.345 0.3847 -0.0443, 1.1984 0.4454 0.1158, 1.2084 0.4213 0.1158, 1.2243 0.4006 0.1158, 1.245 0.3847 0.1158, 1.3209 0.3747 0.1158, 1.2691 0.3747 0.1158, 1.295 0.3713 0.1158, 1.3657 0.4006 0.1158, 1.3816 0.4213 0.1158, 1.3916 0.4454 0.1158, 1.345 0.3847 0.1158, -1.195 0.7113 0.1158, -1.395 0.7113 0.1158, -1.195 0.4713 0.1158, -1.395 0.4713 0.1158, -1.3209 0.3747 0.1158, -1.2243 0.4006 0.1158, -1.2084 0.4213 0.1158, -1.3916 0.4454 0.1158, -1.3816 0.4213 0.1158, -1.3657 0.4006 0.1158, -1.295 0.3713 0.1158, -1.2691 0.3747 0.1158, -1.245 0.3847 0.1158, -1.345 0.3847 0.1158, -1.1984 0.4454 0.1158, -1.395 0.8713 0.1158, -1.395 0.8713 0.0558, -1.395 0.8679 0.0299, -1.395 0.8579 0.0057, -1.395 0.842 -0.015, -1.395 0.8213 -0.0309, -1.395 0.4713 -0.0443, -1.395 0.7713 -0.0443, -1.395 0.7972 -0.0408, -1.195 0.4713 -0.0443, -1.195 0.7713 -0.0443, -1.195 0.7972 -0.0408, -1.195 0.8213 -0.0309, -1.195 0.842 -0.015, -1.195 0.8579 0.0057, -1.195 0.8679 0.0299, -1.195 0.8713 0.0558, -1.195 0.8713 0.1158, -1.2084 0.4213 -0.0443, -1.2243 0.4006 -0.0443, -1.3209 0.3747 -0.0443, -1.345 0.3847 -0.0443, -1.3657 0.4006 -0.0443, -1.3816 0.4213 -0.0443, -1.1984 0.4454 -0.0443, -1.245 0.3847 -0.0443, -1.2691 0.3747 -0.0443, -1.295 0.3713 -0.0443, -1.3916 0.4454 -0.0443, -0.2 0.7113 0.6358, -0.2 0.7113 1.1358, -0.2 0.8713 0.6358, -0.2 0.8713 1.1358, -0.4 0.7113 1.1358, -0.4 0.8713 1.1358, -0.4 0.7113 0.6358, -0.4 0.8713 0.6358, 0.2 0.7113 1.1358, 0.2 0.7113 0.6358, 0.2 0.8713 1.1358, 0.2 0.8713 0.6358, 0.4 0.7113 0.6358, 0.4 0.8713 0.6358, 0.4 0.7113 1.1358, 0.4 0.8713 1.1358
            ]
        }
        coordIndex [
            0,1,2,-1,2,1,3,-1,2,3,4,-1,4,5,2,-1,2,5,6,-1,2,6,7,-1,7,8,2,-1,2,8,9,-1,2,9,10,-1,11,12,13,-1,13,12,14,-1,14,15,13,-1,13,15,16,-1,13,16,17,-1,18,19,20,-1,20,19,13,-1,20,13,21,-1,21,13,17,-1,20,3,18,-1,18,3,1,-1,18,1,22,-1,22,1,23,-1,23,1,24,-1,23,24,25,-1,26,27,28,-1,28,29,26,-1,26,29,30,-1,26,30,23,-1,25,31,23,-1,23,31,32,-1,23,32,26,-1,0,2,13,-1,13,19,0,-1,0,19,33,-1,0,33,34,-1,35,36,37,-1,37,36,38,-1,37,38,39,-1,40,41,34,-1,34,41,42,-1,34,42,0,-1,35,37,34,-1,34,37,43,-1,34,43,40,-1,44,45,46,-1,46,45,47,-1,48,49,50,-1,47,51,46,-1,46,51,52,-1,46,52,53,-1,48,54,49,-1,49,54,55,-1,49,55,56,-1,53,57,46,-1,46,57,48,-1,46,48,58,-1,58,48,50,-1,59,60,45,-1,45,60,61,-1,61,62,45,-1,45,62,63,-1,45,63,64,-1,65,47,66,-1,66,47,45,-1,66,45,67,-1,67,45,64,-1,46,68,44,-1,44,68,69,-1,44,69,70,-1,70,71,44,-1,44,71,72,-1,44,72,73,-1,73,74,44,-1,44,74,75,-1,44,75,76,-1,77,78,79,-1,80,81,68,-1,68,81,82,-1,80,68,79,-1,79,68,83,-1,79,83,77,-1,84,85,78,-1,78,85,86,-1,78,86,79,-1,66,69,65,-1,65,69,68,-1,65,68,87,-1,87,68,82,-1,68,46,58,-1,68,58,83,-1,83,58,50,-1,83,50,77,-1,77,50,49,-1,77,49,78,-1,78,49,56,-1,78,56,84,-1,84,56,55,-1,84,55,85,-1,85,55,54,-1,85,54,86,-1,86,54,48,-1,86,48,79,-1,79,48,57,-1,79,57,80,-1,80,57,53,-1,80,53,81,-1,81,53,52,-1,81,52,82,-1,82,52,51,-1,82,51,87,-1,87,51,47,-1,87,47,65,-1,1,0,42,-1,1,42,24,-1,24,42,41,-1,24,41,25,-1,25,41,40,-1,25,40,31,-1,31,40,43,-1,31,43,32,-1,32,43,37,-1,32,37,26,-1,26,37,39,-1,26,39,27,-1,27,39,38,-1,27,38,28,-1,28,38,36,-1,28,36,29,-1,29,36,35,-1,29,35,30,-1,30,35,34,-1,30,34,23,-1,23,34,33,-1,23,33,22,-1,22,33,19,-1,22,19,18,-1,69,66,67,-1,69,67,70,-1,70,67,64,-1,70,64,71,-1,71,64,63,-1,71,63,72,-1,72,63,62,-1,72,62,73,-1,73,62,61,-1,73,61,74,-1,74,61,60,-1,74,60,75,-1,12,9,8,-1,12,8,14,-1,14,8,7,-1,14,7,15,-1,15,7,6,-1,15,6,16,-1,16,6,5,-1,16,5,17,-1,17,5,4,-1,17,4,21,-1,21,4,3,-1,21,3,20,-1,88,89,90,-1,90,89,91,-1,89,92,91,-1,91,92,93,-1,92,94,93,-1,93,94,95,-1,94,88,95,-1,95,88,90,-1,96,97,98,-1,98,97,99,-1,97,100,99,-1,99,100,101,-1,100,102,101,-1,101,102,103,-1,102,96,103,-1,103,96,98,-1,
        ]
    }
}